<?xml version="1.0" encoding="UTF-8" standalone="no"?>
<svg
   xmlns:dc="http://purl.org/dc/elements/1.1/"
   xmlns:cc="http://creativecommons.org/ns#"
   xmlns:rdf="http://www.w3.org/1999/02/22-rdf-syntax-ns#"
   xmlns:svg="http://www.w3.org/2000/svg"
   xmlns="http://www.w3.org/2000/svg"
   xmlns:sodipodi="http://sodipodi.sourceforge.net/DTD/sodipodi-0.dtd"
   xmlns:inkscape="http://www.inkscape.org/namespaces/inkscape"
   version="1.1"
   width="700px"
   height="400px"
   xml:space="preserve"
   id="svg2"
   inkscape:version="0.91 r13725"
   sodipodi:docname="simple-snail.svg"><metadata
     id="metadata672"><rdf:RDF><cc:Work
         rdf:about=""><dc:format>image/svg+xml</dc:format><dc:type
           rdf:resource="http://purl.org/dc/dcmitype/StillImage" /></cc:Work></rdf:RDF></metadata><defs
     id="defs670" /><sodipodi:namedview
     pagecolor="#ffffff"
     bordercolor="#666666"
     borderopacity="1"
     objecttolerance="10"
     gridtolerance="10"
     guidetolerance="10"
     inkscape:pageopacity="0"
     inkscape:pageshadow="2"
     inkscape:window-width="1337"
     inkscape:window-height="877"
     id="namedview668"
     showgrid="false"
     inkscape:zoom="1.6342857"
     inkscape:cx="427.18477"
     inkscape:cy="158.25143"
     inkscape:window-x="366"
     inkscape:window-y="27"
     inkscape:window-maximized="0"
     inkscape:current-layer="body" /><g
     id="body"
     transform="matrix(0.638149,0,0,0.650007,-74.26584,682.858)"
     inkscape:label="#salivary_duct"><path
       id="tentacle"
       fill="#65636C"
       stroke="#000000"
       stroke-width="0.5927"
       d="M1048.458-849.38   c-8.515,4.865-79.143,95.055-86.785,108.95c-18.267,33.21-37.436,28.663-39.774,22.456c-2.172-5.763,21.692-26.197,28.121-32.471   c6.429-6.273,58.796-67.056,68.082-75.421c9.286-8.365,26.785-30.059,26.785-30.059   C1046.316-859.853,1053.459-852.238,1048.458-849.38z"
       inkscape:label="#path5016" /><path
       id="eye"
       fill="#333333"
       stroke="#000000"
       stroke-width="1.3709"
       d="M1050.14-852.09   c-5.74-0.257-4.245-8.618,0.413-6.943C1054.094-856.96,1054.108-853.642,1050.14-852.09z"
       inkscape:label="#path5022" /><path
       id="path6032"
       opacity="0.34"
       fill="#FFFFFF"
       d="M531.077-942.089   c-47.941,0.071-108.67,32.482-121.125,40.094c-0.494,0.302-0.936,0.589-1.344,0.874c-0.392,1.026-1.242,2.6-2.969,5.031   c1.76,3.162,12.019,4.326,19.312,4.813c0.865,0.057,2.318,0.006,4-0.094c8.718-4.805,18.345-9.052,28.844-12.782   c76.201-10.109,172.918,0.27,219.094,58.656c23.539,11.872,80.906,52.781,80.906,52.781c0.715-0.714-4.282,9.277,0.719,23.563   c5,14.286,15.706-5,18.563-15c0.516-1.806,0.754-4.796,0.75-8.563c-8.16-15.471-20.528-32.771-25.438-35.687   c-6.095-3.62-24.597-26.444-29.562-30.063c-4.966-3.619-30.237-24.209-58-45.469c-27.761-21.26-50.803-22.638-64.124-28.75   c-13.321-6.112-48.782-7.5-48.782-7.5s-1.624-0.557-4.656-1.375c-4.06-0.13-7.968-0.277-11.594-0.437   C534.152-942.062,532.623-942.091,531.077-942.089z" /><g
       id="shell"
       inkscape:label="#g3649"><path
         d="M488.183-947.557c2.325,0.017,4.735,0.095,7.219,0.282   c39.751,2.975,56.468,9.093,56.468,9.093s35.461,1.388,48.782,7.5c13.32,6.112,36.363,7.49,64.124,28.75   c27.761,21.26,53.034,41.85,58,45.468c4.966,3.619,23.467,26.443,29.562,30.063s23.678,29.396,30.438,46.344   c6.759,16.947,13.969,46.53,13.969,46.53l-2.25,4.531c0,0-28.06,40.166-59.688,45.781c-25.259,4.486-52.965,6.52-68.066,6.451   c-8.489-2.187-20.402-6.794-20.402-6.794c58.317-18.458,57.339-37.524,57.125-85.719   c-6.949-123.555-144.442-146.312-245.719-132.875c-75.463,26.803-106.801,80.65-67.134,172.161   c9.856,26.559,22.926,14.044,49.121,40.551c-14.245-5.491-40.574-18.271-47.331-23.024c-6.622-4.66-23.235-23.503-27.063-36.156   c-3.827-12.653-10.349-46.984-7.625-61.438c2.725-14.453,15.42-48.78,34.188-68.187c18.767-19.407,16.937-22.594,16.937-22.594   s11.551-19.633,19.687-24.594C436.155-930.083,453.313-947.809,488.183-947.557z"
         stroke="#000000"
         fill="#9A7F52"
         id="path12304" /><path
         d="M488.233-949.557c-34.87-0.252-52.028,17.474-59.656,22.125   c-7.384,4.502-17.146,20.405-18.969,23.437c26.275-12.213,70.933-30.767,84.031-32.625c9.072-1.287,36.653-1.128,58.333-2.102   c-1.732-0.602-18.925-7.74-56.52-10.554C492.967-949.462,490.557-949.541,488.233-949.557z M576.357-928.432   c-37.58,0.294-98.772,15.2-112.562,19.781c-9.151,3.04-42.167,14.487-71.25,27.781c-0.207,0.215-0.382,0.406-0.594,0.625   c-18.767,19.407-31.462,53.734-34.187,68.188c-0.771,4.092-0.784,9.788-0.344,16.124c4.415-2.966,9.903-6.612,16.031-10.625   c1.232-47.723,32.282-79.102,84.344-97.594c40.083-5.318,85.846-4.932,126.937,5.094c17.779-1.465,32.599-0.686,45.312,0.282   c23.484,1.786,62.591,20.417,75.937,27.063c-10.9-8.655-25.377-20.136-41.156-32.219c-1.971-1.509-3.922-2.9-5.843-4.219   c-21.354-6.948-48.105-15.224-65.063-18.874c-3.952-0.851-8.694-1.307-14-1.406C578.759-928.454,577.57-928.442,576.357-928.432z    M642.858-875.495c17.534,10.961,32.334,25.14,42.968,43.062c2.973,0.217,5.785,0.471,8.282,0.813   c46.524,6.371,27.102,15.858,45.156,31.688c13.485,11.824,37.278,25.654,48.468,31.906c-1.59-5.024-3.258-9.899-4.906-14.032   c-6.759-16.948-24.343-42.723-30.438-46.343c-2.461-1.462-6.952-6.085-11.75-11.281c-24.118-12.281-54.182-25.844-65.468-30.813   C662.563-876.045,651.685-875.54,642.858-875.495z M702.421-782.963c0.493,3.794,0.868,7.683,1.093,11.687   c1.761,5.125,2.934,10.091,3.532,14.875c7.817,6.082,18.717,13.575,33.062,20.155c26.641,12.225,29.344,0.033,29.344,0.033   c0.454-3.163-17.582-21.244-27.062-27.126C736.068-767.26,719.713-776.215,702.421-782.963z M376.764-774.026   c-6.261,6.239-10.443,11.782-13.249,16.313c0.657,2.746,1.298,5.188,1.875,7.094c2.72,8.993,11.701,21.384,19.188,29.281   c1.009-2.013,2.52-5.009,5.75-11.436C383.999-747.491,379.519-761.222,376.764-774.026z"
         stroke="#000000"
         fill="#92534B"
         id="path6020" /><path
         d="M511.608-938.589c0,0-4.424,12.112-9.407,31.094c0.344-0.007,0.687,0.005,1.031,0   c4.945-18.774,9.313-30.75,9.313-30.75L511.608-938.589z M610.108-929.307c-1.434,6.02-4.441,18.564-8.438,35   c0.323,0.105,0.646,0.207,0.969,0.313c3.999-16.438,6.997-28.98,8.438-35.031C610.754-929.123,610.425-929.211,610.108-929.307z    M416.639-911.495c0,0-6.309,14.128-10.844,36.125c0.405-0.352,0.807-0.714,1.219-1.062c0.002-0.01-0.002-0.022,0-0.032   c4.485-21.153,10.532-34.625,10.532-34.625L416.639-911.495z M654.764-910.932c-0.647,3.077-3.696,17.412-8.75,37.469   c0.295,0.195,0.581,0.397,0.875,0.593c4.961-19.698,7.991-33.896,8.75-37.5C655.349-910.556,655.053-910.75,654.764-910.932z    M469.483-909.339c-0.559,1.321-1.073,2.65-1.594,3.969c0.373-0.04,0.752-0.056,1.126-0.094c0.459-1.154,0.917-2.313,1.406-3.469   L469.483-909.339z M676.764-894.713c-0.796,7.741-2.67,22.68-6.75,41.281c0.288,0.305,0.56,0.629,0.845,0.938   c4.086-18.502,6.006-33.455,6.844-41.469C677.382-894.212,677.085-894.464,676.764-894.713z M394.733-883.182   c-0.607,0.646-1.246,1.343-1.906,2.031c-3.816,9.375-8.387,22.605-11.219,37.625c0.557-1.228,1.138-2.428,1.75-3.625   C386.46-861.815,391.086-874.517,394.733-883.182z M705.639-872.026c-0.696,12.147-3.103,33.545-11.032,57.687   c0.185,0.481,0.383,0.953,0.563,1.438c8.101-24.224,10.634-45.815,11.405-58.344C706.234-871.516,705.99-871.748,705.639-872.026z    M715.139-864.463c-0.182,10.043-1.711,35.713-12.187,64.437c-0.739,2.026-1.513,4.076-2.344,6.125   c0.122,0.589,0.228,1.186,0.344,1.781c1.053-2.537,2.025-5.06,2.937-7.563c10.215-28.003,11.985-53.283,12.25-64   C715.816-863.938,715.481-864.194,715.139-864.463z M371.545-849.932c-0.448,0.898-0.884,1.79-1.312,2.688   c-2.295,21.157-0.577,39.879,3.843,56.375c-0.21-2.079-0.391-4.132-0.5-6.157c-0.007-0.029,0.006-0.064,0-0.093   C370.14-812.747,369.098-830.289,371.545-849.932z M732.983-848.089c-0.393,9.165-2.629,29.301-13.75,52.844   c-3.885,8.223-8.864,16.854-15.219,25.562c0.127,0.397,0.286,0.792,0.406,1.188c6.6-8.954,11.724-17.854,15.719-26.313   c10.773-22.806,13.257-42.512,13.782-52.219C733.605-847.374,733.293-847.747,732.983-848.089z M759.357-821.245   c0.245,1.981,0.459,4.739,0.312,8.219c-0.309,7.403-2.158,17.888-8.374,30.188c-7.448,14.734-21.146,32.092-45.969,49.844   c-0.15,0.517-0.335,1.019-0.5,1.531c25.587-18.096,39.713-35.839,47.343-50.937c6.283-12.433,8.186-23.064,8.501-30.594   c0.112-2.679,0.038-4.941-0.125-6.782C760.144-820.294,759.746-820.762,759.357-821.245z M771.358-803.932   c-2.459,14.289-9.303,33.197-27.438,48.687c-23.048,19.687-37.185,30.177-44.093,35.031c-0.419,0.726-0.863,1.444-1.313,2.156   c6.058-4.159,20.777-14.835,46.032-36.406c17.903-15.292,24.941-33.874,27.593-48.218   C771.883-803.104,771.615-803.514,771.358-803.932z M778.076-784.339c0,0-4.646,10.484-12.656,22.5   c-8.011,12.015-19.4,25.529-32.813,31.531l0.406,0.906c13.73-6.142,25.19-19.783,33.25-31.875   c8.062-12.091,12.718-22.656,12.718-22.656L778.076-784.339z M786.701-767.276c0,0-8.042,10.891-16.437,22.5   c-4.198,5.805-8.489,11.764-11.906,16.657c-3.419,4.892-5.951,8.651-6.72,10.188c-2.819,5.64-6.343,9.156-6.343,9.156l0.719,0.718   c0,0,3.636-3.648,6.53-9.436c0.661-1.321,3.214-5.147,6.626-10.031c3.413-4.884,7.71-10.885,11.906-16.688   c8.391-11.604,16.406-22.469,16.406-22.469L786.701-767.276z M792.42-751.62l-20.719,23.594l0.75,0.657l20.407-23.25   c-0.077-0.28-0.139-0.527-0.219-0.812L792.42-751.62z M795.952-738.869c-1.495,2.025-4.058,5.385-7.532,9.312   c-5.425,6.139-12.726,13.25-20.124,17.124c-14.98,7.847-27.126,12.845-27.126,12.845l0.407,0.904c0,0,12.166-5.006,27.187-12.874   c7.603-3.983,14.939-11.161,20.407-17.344c3.131-3.544,5.523-6.618,7.093-8.718C796.17-737.996,796.095-738.298,795.952-738.869z    M736.14-719.589c0,0-9.425,4.983-22.344,10.063c-9.304,3.657-20.408,7.333-31.064,9.25c-0.522,0.442-1.056,0.877-1.593,1.313   c11.292-1.824,23.143-5.751,33-9.626c12.974-5.101,22.469-10.095,22.469-10.095L736.14-719.589z M736.983-704.621   c0,0-13.543,2.858-29.937,4.282c-13.615,1.184-24.765,2.773-28.375,3.313c-0.012,0.009-0.02,0.023-0.032,0.032   c-0.491,0.373-0.998,0.726-1.5,1.094l0.032,0.125c0,0,13.559-2.135,29.968-3.562c16.463-1.432,30.063-4.312,30.063-4.312   L736.983-704.621z"
         id="path6028" /></g><path
       id="path6030"
       opacity="0.1186"
       d="M373.607-810.182c-2.377,4.328-4.467,8.56-6.531,11.749   c-2.97,4.589-6.264,8.268-8.688,12.563c1.715,13.66,4.808,28.005,7,35.25c3.827,12.652,20.065,32.084,27.063,36.156   c1.264,0.736,3.558,1.708,6.469,2.813c-3.99-6.199-6.817-12.987-8.25-20.342C377.673-761.98,372.304-787.911,373.607-810.182z" /></g></svg>