<?xml version="1.0" encoding="UTF-8" standalone="no"?>
<svg
   xmlns:dc="http://purl.org/dc/elements/1.1/"
   xmlns:cc="http://creativecommons.org/ns#"
   xmlns:rdf="http://www.w3.org/1999/02/22-rdf-syntax-ns#"
   xmlns:svg="http://www.w3.org/2000/svg"
   xmlns="http://www.w3.org/2000/svg"
   xmlns:sodipodi="http://sodipodi.sourceforge.net/DTD/sodipodi-0.dtd"
   xmlns:inkscape="http://www.inkscape.org/namespaces/inkscape"
   version="1.1"
   width="959"
   height="593"
   id="svg2"
   inkscape:version="0.91 r13725"
   sodipodi:docname="us.svg">
  <metadata
     id="metadata124">
    <rdf:RDF>
      <cc:Work
         rdf:about="">
        <dc:format>image/svg+xml</dc:format>
        <dc:type
           rdf:resource="http://purl.org/dc/dcmitype/StillImage" />
      </cc:Work>
    </rdf:RDF>
  </metadata>
  <defs
     id="defs122" />
  <sodipodi:namedview
     pagecolor="#ffffff"
     bordercolor="#666666"
     borderopacity="1"
     objecttolerance="10"
     gridtolerance="10"
     guidetolerance="10"
     inkscape:pageopacity="0"
     inkscape:pageshadow="2"
     inkscape:window-width="1920"
     inkscape:window-height="1005"
     id="namedview120"
     showgrid="false"
     inkscape:zoom="0.35349322"
     inkscape:cx="507.78909"
     inkscape:cy="296.5"
     inkscape:window-x="-9"
     inkscape:window-y="-9"
     inkscape:window-maximized="1"
     inkscape:current-layer="svg2" />
  <style
     type="text/css"
     id="style4">
.state 
{
	fill:#E0E0E0;
	stroke:#646464;
	stroke-width:1;
	stroke-opacity:1;
}

.territory
{
	opacity:0;
	fill:#E0E0E0;
	stroke:#646464;
	stroke-width:1;
	stroke-opacity:1;
}

.territoryborder
{
	opacity:0;
	fill:none;
	stroke:#A9A9A9;
	stroke-width:2;
}

.border
{
	opacity:1;
	fill:none;
	stroke:#A9A9A9;
	stroke-width:2;
}

.circle
{
   opacity:1;
   fill:#E0E0E0;
   stroke:#646464;
   stroke-width:1;
}

</style>
  <g
     id="hi">
    <title
       id="title7">Hawaii</title>
    <path
       class="hi"
       d="m 233.08751,519.30948 1.93993,-3.55655 2.26326,-0.32332 0.32332,0.8083 -2.1016,3.07157 -2.42491,0 z m 10.18466,-3.71821 6.14313,2.58657 2.10159,-0.32332 1.61661,-3.87987 -0.64664,-3.39488 -4.2032,-0.48498 -4.04153,1.77827 -0.96996,3.71821 z m 30.71563,10.023 3.7182,5.49647 2.42492,-0.32332 1.13163,-0.48498 1.45495,1.29329 3.71821,-0.16166 0.96997,-1.45495 -2.90991,-1.77827 -1.93993,-3.71822 -2.1016,-3.55654 -5.8198,2.9099 -0.64664,1.77828 z m 20.20765,8.89137 1.29329,-1.93994 4.68817,0.96996 0.64665,-0.48498 6.14312,0.64664 -0.32332,1.2933 -2.58658,1.45494 -4.36485,-0.32332 -5.49648,-1.6166 z m 5.33482,5.17315 1.93994,3.87987 3.07155,-1.13163 0.32333,-1.61662 -1.61661,-2.10159 -3.71821,-0.32332 0,1.29329 z m 6.95143,-1.13163 2.26326,-2.9099 4.68817,2.42492 4.36485,1.13163 4.36486,2.74824 0,1.93993 -3.55654,1.77828 -4.84985,0.96996 -2.42491,-1.45495 -4.84984,-6.62811 z m 16.65111,15.51947 1.61661,-1.29328 3.39489,1.61662 7.59807,3.55654 3.39489,2.10159 1.6166,2.42492 1.93994,4.36485 4.04153,2.58658 -0.32332,1.2933 -3.87987,3.23322 -4.20319,1.45495 -1.45495,-0.64664 -3.07157,1.77826 -2.42491,3.23323 -2.26326,2.9099 -1.77828,-0.16166 -3.55654,-2.58658 -0.32332,-4.52651 0.64664,-2.42492 -1.61661,-5.65814 -2.1016,-1.77828 -0.16166,-2.58658 2.26326,-0.96996 2.1016,-3.07156 0.48498,-0.96997 -1.61661,-1.77828 -0.32332,-2.1016 z"
       />
  </g>
  <g
     id="ak">
    <title
       id="title11">Alaska</title>
    <path
       class="ak"
       d="m 158.07671,453.67502 -0.32332,85.35713 1.6166,0.96996 3.07157,0.16166 1.45494,-1.13162 2.58658,0 0.16167,2.9099 6.95143,6.78977 0.48499,2.58658 3.39488,-1.93994 0.64665,-0.16166 0.32332,-3.07156 1.45494,-1.61661 1.13164,-0.16166 1.93993,-1.45496 3.07156,2.1016 0.64665,2.90991 1.93993,1.13162 1.13163,2.42492 3.87988,1.77827 3.39488,5.98147 2.74823,3.87986 2.26326,2.74825 1.45496,3.7182 5.01149,1.77828 5.17317,2.10159 0.96996,4.36486 0.48498,3.07156 -0.96996,3.39489 -1.77828,2.26325 -1.61661,-0.8083 -1.45495,-3.07157 -2.74824,-1.45494 -1.77827,-1.13164 -0.80831,0.80831 1.45495,2.74825 0.16166,3.7182 -1.13163,0.48498 -1.93993,-1.93993 -2.10159,-1.29329 0.48498,1.61661 1.29328,1.77828 -0.8083,0.8083 c 0,0 -0.8083,-0.32332 -1.29328,-0.96997 -0.485,-0.64664 -2.1016,-3.39488 -2.1016,-3.39488 l -0.96997,-2.26326 c 0,0 -0.32332,1.29329 -0.96997,0.96996 -0.64665,-0.32332 -1.29329,-1.45494 -1.29329,-1.45494 l 1.77827,-1.93994 -1.45495,-1.45495 0,-5.0115 -0.8083,0 -0.8083,3.39488 -1.13164,0.485 -0.96996,-3.71822 -0.64665,-3.71821 -0.80831,-0.48498 0.32333,5.65815 0,1.13162 -1.45496,-1.29328 -3.55654,-5.98147 -2.1016,-0.48498 -0.64664,-3.71821 -1.61661,-2.9099 -1.61662,-1.13164 0,-2.26325 2.1016,-1.29329 -0.48498,-0.32332 -2.58658,0.64664 -3.39489,-2.42491 -2.58658,-2.90991 -4.84983,-2.58658 -4.04154,-2.58658 1.2933,-3.23322 0,-1.61661 -1.77828,1.61661 -2.9099,1.13163 -3.71821,-1.13163 -5.65815,-2.42491 -5.49647,0 -0.64664,0.48498 -6.46645,-3.87988 -2.1016,-0.32332 -2.74824,-5.8198 -3.55655,0.32332 -3.55655,1.45495 0.48499,4.52652 1.13162,-2.9099 0.96998,0.32332 -1.45496,4.36485 3.23322,-2.74824 0.64665,1.61661 -3.87987,4.36485 -1.29329,-0.32332 -0.48498,-1.93994 -1.29329,-0.8083 -1.29329,1.13163 -2.74824,-1.77827 -3.07157,2.1016 -1.77826,2.10159 -3.39489,2.1016 -4.68818,-0.16167 -0.48498,-2.10159 3.7182,-0.64665 0,-1.29328 -2.26326,-0.64666 0.96998,-2.42491 2.26325,-3.87987 0,-1.77827 0.16166,-0.80831 4.36486,-2.26326 0.96996,1.29329 2.74825,0 -1.29329,-2.58657 -3.71822,-0.32333 -5.01149,2.74824 -2.42492,3.39488 -1.77827,2.58659 -1.13163,2.26326 -4.20319,1.45494 -3.07157,2.58658 -0.323321,1.61662 2.263257,0.96997 0.808313,2.10158 -2.748249,3.23323 -6.466439,4.2032 -7.759747,4.20319 -2.101597,1.13162 -5.334818,1.13164 -5.334826,2.26325 1.778275,1.29329 -1.454954,1.45495 -0.484982,1.13163 -2.748238,-0.96997 -3.23322,0.16166 -0.808312,2.26326 -0.969963,0 0.323321,-2.42492 -3.556551,1.2933 -2.909899,0.96996 -3.394886,-1.29329 -2.909901,1.93993 -3.233224,0 -2.101597,1.2933 -1.616612,0.8083 -2.101595,-0.32332 -2.58658,-1.13163 -2.263257,0.64665 -0.969967,0.96996 -1.616613,-1.13162 0,-1.93994 3.071564,-1.29329 6.304787,0.64665 4.364853,-1.61662 2.101596,-2.10159 2.909902,-0.64665 1.778273,-0.80831 2.748241,0.16166 1.616612,1.2933 0.969963,-0.32332 2.263257,-2.74824 3.07157,-0.96998 3.39488,-0.64664 1.293294,-0.32332 0.646642,0.48498 0.808312,0 1.293284,-3.71821 4.041533,-1.45494 1.939936,-3.71821 2.263259,-4.52652 1.616615,-1.45495 0.323321,-2.58658 -1.616615,1.29329 -3.394893,0.64665 -0.646642,-2.42492 -1.293284,-0.32332 -0.969973,0.96996 -0.16166,2.90991 -1.454955,-0.16167 -1.454944,-5.8198 -1.293294,1.29328 -1.131624,-0.48498 -0.32332,-1.93993 -4.041533,0.16166 -2.101596,1.13163 -2.586578,-0.32332 1.454944,-1.45495 0.484981,-2.58658 -0.646641,-1.93994 1.454954,-0.96996 1.293284,-0.16166 -0.646642,-1.77828 0,-4.36485 -0.969963,-0.96997 -0.808312,1.45495 -6.143123,0 -1.454951,-1.29329 -0.646645,-3.87986 -2.101596,-3.55656 0,-0.96996 2.101596,-0.80831 0.161661,-2.1016 1.131628,-1.13162 -0.808305,-0.48498 -1.29329,0.48498 -1.131628,-2.74824 0.969967,-5.01151 4.526514,-3.23321 2.586575,-1.61662 1.939936,-3.7182 2.748249,-1.2933 2.586578,1.13164 0.323321,2.42492 2.424917,-0.32334 3.23322,-2.42491 1.616615,0.64665 0.969962,0.64664 1.616615,0 2.263259,-1.29329 0.808313,-4.36486 c 0,0 0.323321,-2.90989 0.969963,-3.39488 0.646642,-0.48498 0.969963,-0.96996 0.969963,-0.96996 l -1.131623,-1.93994 -2.58658,0.80831 -3.23323,0.8083 -1.939936,-0.48498 -3.556541,-1.77828 -5.011495,-0.16166 -3.556551,-3.7182 0.484981,-3.87987 0.646652,-2.42492 -2.101596,-1.77827 -1.939938,-3.71822 0.484983,-0.8083 6.789771,-0.48498 2.101596,0 0.969963,0.96996 0.646652,0 -0.16166,-1.61661 3.879862,-0.64664 2.586577,0.32332 1.454955,1.13163 -1.454955,2.1016 -0.484981,1.45494 2.748249,1.61662 5.011497,1.77827 1.778276,-0.96996 -2.263257,-4.36485 -0.969974,-3.23323 0.969974,-0.80831 -3.394891,-1.93993 -0.484983,-1.13164 0.484983,-1.6166 -0.808304,-3.87987 -2.909909,-4.68818 -2.424918,-4.20319 2.909909,-1.93994 3.233222,0 1.778276,0.64665 4.203192,-0.16166 3.718205,-3.55654 1.131633,-3.07157 3.718212,-2.42492 1.616604,0.96997 2.748239,-0.64665 3.718209,-2.1016 1.13164,-0.16166 0.96996,0.80832 4.52651,-0.16167 2.74824,-3.07156 1.13163,0 3.55655,2.42491 1.93993,2.1016 -0.48498,1.13163 0.64664,1.13163 1.61662,-1.61661 3.87987,0.32332 0.32332,3.7182 1.93994,1.45496 7.11309,0.64664 6.30479,4.20319 1.45494,-0.96996 5.17317,2.58658 2.10159,-0.64664 1.93994,-0.80832 4.84983,1.93994 4.36486,2.9099 z m -115.102797,28.93736 2.101596,5.33482 -0.161662,0.96997 -2.909902,-0.32333 -1.778273,-4.04153 -1.778273,-1.45494 -2.424919,0 -0.16166,-2.58659 1.778273,-2.42492 1.131629,2.42492 1.45495,1.45495 2.748241,0.64665 z m -2.58658,33.46387 3.718209,0.80831 3.718207,0.96996 0.808307,0.96998 -1.616612,3.7182 -3.071564,-0.16166 -3.394885,-3.55654 -0.161662,-2.74825 z m -20.692636,-14.06452 1.13163,2.58657 1.131628,1.61662 -1.131628,0.8083 -2.101597,-3.07156 0,-1.93993 0.969967,0 z m -13.7412027,73.07087 3.3948853,-2.26326 3.3948854,-0.96997 2.58658,0.32332 0.484983,1.61661 1.939935,0.48499 1.939934,-1.93993 -0.323322,-1.61661 2.748241,-0.64665 2.909902,2.58658 -1.131629,1.77827 -4.364852,1.13163 -2.748242,-0.48498 -3.718207,-1.13163 -4.3648533,1.45495 -1.616612,0.32332 -1.1316284,-0.64664 z m 48.9833487,-4.52651 1.616612,1.93993 2.101593,-1.61661 -1.454948,-1.2933 -2.263257,0.96998 z m 2.909902,3.07155 1.131624,-2.26325 2.101597,0.32332 -0.808303,1.93993 -2.424918,0 z m 23.602535,-1.93993 1.454954,1.77827 0.969974,-1.13162 -0.808313,-1.93994 -1.616615,1.29329 z m 8.72971,-12.44791 1.131633,5.8198 2.909899,0.80831 5.011495,-2.90991 4.364853,-2.58658 -1.6166,-2.42491 0.48498,-2.42492 -2.1016,1.29329 -2.909898,-0.80831 1.616605,-1.13162 1.939933,0.8083 3.87987,-1.77828 0.48499,-1.45494 -2.42492,-0.80831 0.8083,-1.93994 -2.74824,1.93994 -4.688172,3.55655 -4.849834,2.9099 -1.293294,1.13163 z m 42.35524,-19.88433 2.42492,-1.45495 -0.96997,-1.77828 -1.77827,0.96997 0.32332,2.26326 z"
        />
  </g>
  <g
     id="fl">
    <title
       id="title15">Florida</title>
    <path
       d="m 759.8167,439.1428 2.26566,7.3186 3.7297,9.74226 5.33479,9.3763 3.71819,6.30476 4.84982,5.49646 4.04151,3.71819 1.6166,2.90989 -1.13162,1.29328 -0.8083,1.29328 2.90988,7.43639 2.90989,2.90988 2.58657,5.3348 3.55653,5.81978 4.52649,8.24468 1.29329,7.59804 0.48498,11.96288 0.64664,1.77826 -0.32332,3.39487 -2.42491,1.29329 0.32332,1.93992 -0.64664,1.93993 0.32332,2.4249 0.48498,1.93993 -2.74822,3.23321 -3.07155,1.45494 -3.87985,0.16166 -1.45495,1.61661 -2.4249,0.96996 -1.29329,-0.48498 -1.13162,-0.96996 -0.32332,-2.90989 -0.80831,-3.39487 -3.39487,-5.17314 -3.55653,-2.26324 -3.87985,-0.32332 -0.8083,1.29328 -3.07155,-4.36483 -0.64664,-3.55653 -2.58657,-4.04151 -1.77826,-1.13163 -1.61661,2.10159 -1.77826,-0.32332 -2.10159,-5.01148 -2.90989,-3.87985 -2.90989,-5.33479 -2.58656,-3.07155 -3.55653,-3.71819 2.10158,-2.42491 3.23321,-5.49646 -0.16166,-1.6166 -4.52649,-0.96996 -1.61661,0.64664 0.32333,0.64664 2.58656,0.96996 -1.45494,4.5265 -0.8083,0.48498 -1.77827,-4.04151 -1.29328,-4.84982 -0.32332,-2.74823 1.45494,-4.68815 0,-9.53797 -3.07155,-3.71819 -1.29328,-3.07155 -5.17314,-1.29328 -1.93992,-0.64664 -1.61661,-2.58657 -3.39487,-1.61661 -1.13162,-3.39487 -2.74823,-0.96996 -2.42491,-3.71819 -4.20317,-1.45494 -2.90989,-1.45495 -2.58656,0 -4.04152,0.80831 -0.16166,1.93992 0.80831,0.96996 -0.48499,1.13163 -3.07154,-0.16166 -3.71819,3.55653 -3.55654,1.93992 -3.87985,0 -3.23321,1.29329 -0.32332,-2.74823 -1.6166,-1.93993 -2.90989,-1.13162 -1.6166,-1.45495 -8.08303,-3.87985 -7.59804,-1.77826 -4.36483,0.64664 -5.98144,0.48498 -5.98144,2.10159 -3.47924,0.61296 -0.23792,-8.04975 -2.58657,-1.93992 -1.77827,-1.77827 0.32332,-3.07156 10.18462,-1.29328 25.5424,-2.90989 6.78975,-0.64664 5.436,0.28027 2.58657,3.87986 1.45494,1.45494 8.09816,0.51522 10.81975,-0.64664 21.51239,-1.29329 5.44572,-0.67437 5.10758,0.20451 0.42683,2.90989 2.233,0.8083 0.23494,-4.63 -1.52822,-4.17295 1.3084,-1.43983 5.55463,0.45475 5.17314,0.32332 z m 12.54541,132.40508 2.42492,-0.64664 1.29328,-0.24249 1.45496,-2.34409 2.34408,-1.61661 1.29329,0.48499 1.69744,0.32332 0.40415,1.05079 -3.4757,1.21246 -4.2032,1.45495 -2.34408,1.21246 -0.88914,-0.88914 z m 13.4987,-5.01149 1.21246,1.0508 2.74824,-2.10159 5.33481,-4.20319 3.7182,-3.87987 2.50575,-6.6281 0.96997,-1.69744 0.16166,-3.39488 -0.72748,0.48498 -0.96996,2.82907 -1.45496,4.60733 -3.23322,5.254 -4.36484,4.20318 -3.39488,1.93993 -2.50575,1.53578 z"
       class="fl" />
  </g>
  <g
     id="nh">
    <title
       id="title19">New Hampshire</title>
    <path
       d="m 880.79902,142.42476 0.869,-1.0765 1.09022,-3.29102 -2.54308,-0.91347 -0.48499,-3.07156 -3.87985,-1.13162 -0.32332,-2.74824 -7.27475,-23.44082 -4.60142,-14.542988 -0.89708,-0.0051 -0.64664,1.616605 -0.64664,-0.484981 -0.96997,-0.969963 -1.45494,1.939925 -0.0485,5.032054 0.31165,5.667218 1.93992,2.74824 0,4.04152 -3.7182,5.06278 -2.58657,1.13164 0,1.13162 1.13163,1.77827 0,8.56802 -0.80831,9.21467 -0.16166,4.84982 0.96997,1.2933 -0.16166,4.52649 -0.48499,1.77828 0.96881,0.70922 16.78767,-4.42455 2.17487,-0.60245 1.84357,-2.77333 3.60523,-1.61312 z"

       class="nh" />
  </g>
  <g
     id="MI"
     class="mi">
    <title
       id="title23">Michigan</title>
    <path
       d="m 697.86007,177.23689 -3.23321,-8.24469 -2.26325,-9.05298 -2.4249,-3.23321 -2.58657,-1.77827 -1.6166,1.13163 -3.87986,1.77826 -1.93992,5.01148 -2.74823,3.71819 -1.13162,0.64664 -1.45495,-0.64664 c 0,0 -2.58656,-1.45495 -2.4249,-2.10159 0.16166,-0.64664 0.48498,-5.01147 0.48498,-5.01147 l 3.39487,-1.29329 0.8083,-3.39487 0.64664,-2.58656 2.42491,-1.61661 -0.32332,-10.02295 -1.61661,-2.26324 -1.29328,-0.80831 -0.8083,-2.10158 0.8083,-0.8083 1.6166,0.32332 0.16166,-1.61661 -2.4249,-2.26325 -1.29329,-2.58656 -2.58656,0 -4.5265,-1.45495 -5.49645,-3.39487 -2.74823,0 -0.64664,0.64665 -0.96997,-0.48499 -3.07154,-2.26324 -2.90989,1.77826 -2.90989,2.26325 0.32332,3.55653 0.96996,0.32332 2.10159,0.48498 0.48498,0.8083 -2.58657,0.80831 -2.58656,0.32332 -1.45495,1.77826 -0.32332,2.10159 0.32332,1.6166 0.32332,5.49646 -3.55653,2.10159 -0.64664,-0.16167 0,-4.20317 1.29328,-2.4249 0.64665,-2.42491 -0.80831,-0.8083 -1.93992,0.8083 -0.96997,4.20317 -2.74822,1.13162 -1.77827,1.93993 -0.16166,0.96996 0.64664,0.8083 -0.64664,2.58657 -2.26325,0.48498 0,1.13163 0.80831,2.4249 -1.13163,6.1431 -1.6166,4.04151 0.64664,4.68816 0.48498,1.13162 -0.8083,2.42491 -0.32332,0.8083 -0.32332,2.74823 3.55653,5.98143 2.90989,6.46642 1.45494,4.84982 -0.8083,4.68815 -0.96996,5.98144 -2.42491,5.17313 -0.32332,2.74823 -3.25887,3.08515 4.40861,-0.16205 21.41849,-2.26325 7.27784,-0.98706 0.0964,1.66635 6.85194,-1.21246 10.29808,-1.50313 3.8542,-0.46091 0.13805,-0.58755 0.16166,-1.45494 2.10158,-3.71819 2.00056,-1.73785 -0.22229,-5.05189 1.59699,-1.59699 1.09062,-0.34294 0.22228,-3.55653 1.53577,-3.03112 1.05079,0.60622 0.16166,0.64664 0.80831,0.16166 1.93992,-0.96996 -0.32332,-9.53797 z"
       id="MI-" />
    <path
       d="m 581.61931,82.059006 1.82899,-2.057604 2.17192,-0.800181 5.37264,-3.886597 2.28622,-0.571559 0.45726,0.457254 -5.14402,5.14402 -3.31504,1.943289 -2.05761,0.914496 -1.60036,-1.143118 z m 86.17438,32.128184 0.64664,2.50574 3.23322,0.16166 1.29329,-1.21246 c 0,0 -0.0808,-1.45494 -0.40415,-1.61661 -0.32333,-0.16166 -1.61661,-1.8591 -1.61661,-1.8591 l -2.18242,0.24249 -1.61662,0.16166 -0.32332,1.13163 0.96997,0.48499 z m -100.3016,-2.97401 0.71628,-0.5804 2.74823,-0.80831 3.55653,-2.26324 0,-0.96997 0.64665,-0.64664 5.98143,-0.96996 2.42491,-1.93993 4.36483,-2.10158 0.16166,-1.293286 1.93993,-2.909889 1.77826,-0.808302 1.29329,-1.778265 2.26324,-2.263247 4.36484,-2.424907 4.68815,-0.484981 1.13162,1.131623 -0.32332,0.969963 -3.71819,0.969963 -1.45494,3.071549 -2.26325,0.808302 -0.48498,2.424907 -2.42491,3.23321 -0.32332,2.58657 0.8083,0.48498 0.96997,-1.13162 3.55653,-2.90989 1.29328,1.29328 2.26325,0 3.23321,0.96996 1.45494,1.13163 1.45494,3.07155 2.74823,2.74822 3.87985,-0.16166 1.45495,-0.96996 1.6166,1.29328 1.61661,0.48499 1.29328,-0.80831 1.13162,0 1.61661,-0.96996 4.04151,-3.55653 3.39487,-1.13162 6.62808,-0.32332 4.52649,-1.93993 2.58657,-1.29328 1.45495,0.16166 0,5.65811 0.48498,0.32332 2.90988,0.80831 1.93993,-0.48499 6.1431,-1.6166 1.13162,-1.13162 1.45495,0.48498 0,6.9514 3.23321,3.07155 1.29328,0.64664 1.29328,0.96996 -1.29328,0.32332 -0.8083,-0.32332 -3.71819,-0.48498 -2.10159,0.64664 -2.26325,-0.16166 -3.23321,1.45495 -1.77826,0 -5.81978,-1.29329 -5.17313,0.16166 -1.93993,2.58657 -6.9514,0.64664 -2.42491,0.8083 -1.13162,3.07155 -1.29328,1.13163 -0.48498,-0.16166 -1.45495,-1.61661 -4.52649,2.42491 -0.64664,0 -1.13163,-1.61661 -0.8083,0.16166 -1.93992,4.36484 -0.96997,4.04151 -3.18112,7.0008 -1.17676,-1.03427 -1.37174,-1.03132 -1.94078,-10.28802 -3.54448,-1.37005 -2.05258,-2.28623 -12.12036,-2.74348 -2.85527,-1.02964 -8.23042,-2.17274 -7.88999,-1.14312 -3.7193,-5.14569 z"
       id="SP-" />
  </g>
  <g
     id="vt">
    <title
       id="title28">Vermont</title>
    <path
       d="m 844.48416,154.05791 0.3167,-5.34563 -2.89071,-10.78417 -0.64664,-0.32332 -2.9099,-1.29329 0.8083,-2.90989 -0.8083,-2.10159 -2.70005,-4.63998 0.96997,-3.87986 -0.80831,-5.17315 -2.42491,-6.46644 -0.80557,-4.92251 26.41936,-6.73182 0.3087,5.52221 1.91626,2.74223 0,4.04152 -3.70715,5.05799 -2.58657,1.14267 -0.011,1.12057 1.30997,1.51912 -0.31093,8.09797 -0.60943,9.25886 -0.22795,5.55694 0.96996,1.29329 -0.16166,4.57069 -0.48498,1.68989 1.01418,0.72716 -7.43755,1.50671 -4.50174,0.72383 z"
       class="vt" />
  </g>
  <g
     id="me">
    <title
       id="title32">Maine</title>
    <path
       d="m 922.83976,78.830719 1.93993,2.101586 2.26325,3.718191 0,1.939926 -2.10159,4.688153 -1.93993,0.646642 -3.39487,3.071549 -4.84981,5.496454 c 0,0 -0.64664,0 -1.29328,0 -0.64664,0 -0.96997,-2.101584 -0.96997,-2.101584 l -1.77826,0.16166 -0.96996,1.454944 -2.42491,1.45495 -0.96996,1.45494 1.6166,1.45494 -0.48498,0.64665 -0.48498,2.74822 -1.93993,-0.16166 0,-1.6166 -0.32332,-1.29329 -1.45494,0.32333 -1.77827,-3.23321 -2.10158,1.29328 1.29328,1.45494 0.32332,1.13163 -0.8083,1.29328 0.32332,3.07155 0.16166,1.6166 -1.6166,2.58657 -2.90989,0.48498 -0.32332,2.90989 -5.3348,3.07155 -1.29328,0.48498 -1.61661,-1.45494 -3.07155,3.55653 0.96997,3.23321 -1.45495,1.29328 -0.16166,4.36483 -1.12328,6.25936 -2.46225,-1.15595 -0.48499,-3.07156 -3.87985,-1.13163 -0.32332,-2.74824 -7.27475,-23.44082 -4.69858,-14.639742 1.42054,-0.118165 1.51379,0.409899 0,-2.586568 1.3083,-4.496456 2.58657,-4.688153 1.45495,-4.041512 -1.93993,-2.424907 0,-5.981437 0.8083,-0.969963 0.80831,-2.748228 -0.16166,-1.454944 -0.16167,-4.849814 1.77827,-4.849814 2.90989,-8.891326 2.10158,-4.203172 1.29329,0 1.29328,0.16166 0,1.131623 1.29329,2.263247 2.74822,0.646642 0.80831,-0.808303 0,-0.969962 4.04151,-2.909889 1.77826,-1.778265 1.45495,0.161661 5.98143,2.424907 1.93993,0.969962 9.05299,29.907187 5.98143,0 0.80831,1.939926 0.16166,4.849814 2.90988,2.263246 0.80831,0 0.16166,-0.484981 -0.48498,-1.131623 2.74822,-0.161661 z m -20.93175,30.147531 1.53578,-1.53578 1.37412,1.0508 0.56581,2.42492 -1.69744,0.88913 -1.77827,-2.82907 z m 6.70893,-5.90062 1.77827,1.8591 c 0,0 1.29329,0.0808 1.29329,-0.2425 0,-0.32332 0.24249,-2.02076 0.24249,-2.02076 l 0.88914,-0.8083 -0.80831,-1.77828 -2.02076,0.72748 -1.37412,2.26326 z"
       class="me" />
  </g>
  <g
     id="ri">
    <title
       id="title36">Rhode Island</title>
    <path
       d="m 874.07001,178.89536 -3.69579,-14.95599 6.26928,-1.84514 2.19113,1.92712 3.30649,4.32065 2.6879,4.40209 -2.99934,1.62479 -1.29328,-0.16166 -1.13162,1.77827 -2.42491,1.93992 -2.90986,0.96995 z"
       class="ri" />
  </g>
  <g
     id="ny">
    <title
       id="title40">New York</title>
    <path
       d="m 830.37944,188.7456 -1.13163,-0.96996 -2.58658,-0.16166 -2.26324,-1.93992 -1.63061,-6.12913 -3.45846,0.0905 -2.44371,-2.7082 -19.38532,4.38194 -43.00178,8.72969 -7.52965,1.22799 -0.73816,-6.46834 1.4281,-1.12538 1.29328,-1.13162 0.96997,-1.61661 1.77826,-1.13162 1.93993,-1.77827 0.48498,-1.6166 2.10158,-2.74823 1.13163,-0.96996 -0.16166,-0.96997 -1.29329,-3.07154 -1.77826,-0.16166 -1.93993,-6.1431 2.90989,-1.77827 4.36483,-1.45494 4.04152,-1.29329 3.23321,-0.48498 6.30475,-0.16166 1.93993,1.29329 1.6166,0.16166 2.10159,-1.29329 2.58657,-1.13162 5.17313,-0.48498 2.10159,-1.77827 1.77826,-3.23321 1.61661,-1.93992 2.10158,0 1.93993,-1.13163 0.16166,-2.26324 -1.45494,-2.10159 -0.32332,-1.45494 1.13162,-2.10159 0,-1.45494 -1.77827,0 -1.77826,-0.8083 -0.8083,-1.13163 -0.16166,-2.58657 5.81977,-5.49645 0.64664,-0.8083 1.45495,-2.90989 2.90989,-4.5265 2.74823,-3.71819 2.10158,-2.4249 2.4151,-1.82561 3.08136,-1.24594 5.49645,-1.29329 3.23321,0.16166 4.5265,-1.45494 7.56519,-2.07117 0.51979,4.97967 2.42492,6.46644 0.8083,5.17315 -0.96996,3.87986 2.58657,4.5265 0.8083,2.10159 -0.8083,2.9099 2.9099,1.29328 0.64664,0.32332 3.07156,10.99294 -0.53629,5.05967 -0.48498,10.83127 0.8083,5.49647 0.8083,3.55654 1.45495,7.27474 0,8.08304 -1.13163,2.26325 1.83933,1.99279 0.79655,1.67842 -1.93992,1.77827 0.32332,1.29328 1.29328,-0.32332 1.45495,-1.29328 2.26324,-2.58657 1.13163,-0.64664 1.6166,0.64664 2.26325,0.16166 7.92136,-3.87985 2.90989,-2.74823 1.29328,-1.45494 4.20317,1.6166 -3.39487,3.55653 -3.87985,2.90989 -7.11306,5.33479 -2.58656,0.96997 -5.81978,1.93992 -4.04151,1.13163 -1.17474,-0.53293 -0.24402,-3.68853 0.48498,-2.74824 -0.16166,-2.10158 -2.81351,-1.699 -4.5265,-0.96997 -3.87986,-1.13162 -3.7182,-1.77828 z"
       class="ny" />
  </g>
  <g
     id="pa">
    <title
       id="title44">Pennsylvania</title>
    <path
       d="m 825.1237,224.69205 1.30842,-0.271 2.32953,-1.25325 1.21188,-2.48307 1.61661,-2.26325 3.23321,-3.07156 0,-0.8083 -2.42491,-1.6166 -3.55654,-2.42492 -0.96996,-2.58657 -2.74824,-0.32332 -0.16166,-1.13163 -0.8083,-2.74823 2.26326,-1.13162 0.16166,-2.42492 -1.2933,-1.29329 0.16166,-1.61661 1.93994,-3.07155 0,-3.07156 2.69763,-2.64588 -0.92028,-0.67498 -2.52408,-0.19291 -2.29449,-1.93992 -1.54992,-6.11606 -3.50458,0.10052 -2.45523,-2.70333 -18.09099,4.19777 -43.00178,8.72969 -8.89135,1.45494 -0.62067,-6.52139 -5.36253,5.06765 -1.29329,0.48498 -4.20229,3.00889 2.91076,19.13745 2.48166,9.72936 3.5718,19.26149 3.26931,-0.63768 11.94358,-1.50247 37.92663,-7.6652 14.87621,-2.82332 8.30035,-1.62236 0.26711,-0.23853 2.1016,-1.61662 2.10158,-0.68084 z"
       class="pa" />
  </g>
  <path
     d="m 829.67942,188.46016 -2.32255,2.73427 0,3.07156 -1.93994,3.07155 -0.16166,1.61662 1.2933,1.29328 -0.16166,2.42492 -2.26326,1.13162 0.8083,2.74823 0.16166,1.13163 2.74824,0.32332 0.96996,2.58657 3.55654,2.42492 2.42491,1.6166 0,0.80831 -2.98321,2.69656 -1.61661,2.26324 -1.45495,2.74824 -2.26325,1.29328 -0.46245,1.60248 -0.2425,1.21246 -0.60923,2.60674 1.09227,2.24419 3.23321,2.90989 4.84981,2.26325 4.04151,0.64664 0.16166,1.45494 -0.8083,0.96996 0.32332,2.74823 0.8083,0 2.10159,-2.4249 0.8083,-4.84982 2.74823,-4.04151 3.07155,-6.46642 1.13162,-5.49645 -0.64664,-1.13163 -0.16166,-9.37631 -1.61661,-3.39486 -1.13162,0.8083 -2.74823,0.32332 -0.48498,-0.48498 1.13163,-0.96997 2.10158,-1.93992 0.0631,-1.09383 -0.38439,-3.43384 0.57337,-2.74824 -0.11747,-1.96901 -2.80754,-1.75035 -5.09214,-1.17576 -4.13744,-1.38163 -3.58563,-1.64569 z"
     id="NJ"
     class="nj" />
  <path
     d="m 825.6261,228.2791 0.36831,-2.14689 0.37507,-1.69105 -1.623,0.39776 -1.61546,0.46756 -2.20626,1.7643 1.72012,5.04288 2.26326,5.65812 2.10158,9.69965 1.61662,6.30478 5.01148,-0.16166 6.14212,-1.18068 -2.26423,-7.38627 -0.96997,0.48498 -3.55653,-2.4249 -1.77826,-4.68816 -1.93993,-3.55653 -3.14712,-2.87031 -0.86416,-2.09812 0.36636,-1.61546 z"
     id="DE"
     class="de" />
  <path
     d="m 839.79175,252.41476 -6.00855,1.20384 -5.1429,0.11746 -1.84356,-6.92233 -1.92481,-9.16932 -2.57262,-6.18845 -1.28838,-4.39833 -7.50602,1.62236 -14.87621,2.82332 -37.45143,7.5509 1.1313,5.01166 0.96996,5.65811 0.32332,-0.32332 2.1016,-2.4249 2.26324,-2.61766 2.42491,-0.61556 1.45496,-1.45495 1.77826,-2.58657 1.29328,0.64665 2.90989,-0.32333 2.58658,-2.10158 2.00689,-1.45327 1.84523,-0.48498 1.64435,1.12995 2.90989,1.45494 1.93992,1.77827 1.21246,1.53578 4.12235,1.69743 0,2.90989 5.49646,1.29329 1.14444,0.54198 1.4119,-2.02832 2.88197,1.97016 -1.27817,2.48193 -0.76527,3.98566 -1.77826,2.58657 0,2.10159 0.64664,1.77827 5.06395,1.35569 4.3111,-0.0617 3.07154,0.96997 2.10159,0.32332 0.96996,-2.10159 -1.45494,-2.10158 0,-1.77827 -2.42491,-2.10159 -2.10158,-5.49645 1.29328,-5.3348 -0.16166,-2.10158 -1.29328,-1.29329 c 0,0 1.45494,-1.6166 1.45494,-2.26324 0,-0.64665 0.48498,-2.10159 0.48498,-2.10159 l 1.93993,-1.29328 1.93992,-1.61661 0.48498,0.96997 -1.45494,1.6166 -1.29328,3.71819 0.32332,1.13162 1.77826,0.32332 0.48498,5.49646 -2.10158,0.96996 0.32332,3.55653 0.48498,-0.16166 1.13162,-1.93992 1.61661,1.77826 -1.61661,1.29329 -0.32332,3.39487 2.58657,3.39487 3.87985,0.48498 1.61661,-0.8083 3.23655,4.18293 1.35835,0.5363 6.65367,-2.79695 2.00758,-4.02387 -0.43596,-4.90798 z m -15.96958,9.02872 1.13162,2.50575 0.16166,1.77827 1.13163,1.8591 c 0,0 0.88914,-0.88914 0.88914,-1.21246 0,-0.32332 -0.72747,-3.07156 -0.72747,-3.07156 l -0.72748,-2.34409 -1.8591,0.48499 z"
     id="MD"
     class="md" />
  <path
     d="m 831.63885,266.06892 -0.14391,-1.94703 6.45343,-2.54988 -0.77041,3.21784 -2.91995,3.77911 -0.41809,4.58582 0.46175,3.39044 -1.82797,4.97816 -2.16427,1.91614 -1.47034,-4.64081 0.44589,-5.44911 1.587,-4.18307 0.76687,-3.09761 z m 3.34019,28.30136 -58.17418,12.57543 -37.42697,5.27907 -6.67833,-0.37518 -2.58525,1.92638 -7.33913,0.22069 -8.38211,0.97767 -10.91496,1.61462 10.46943,-5.6112 -0.0131,-2.07493 1.52005,-2.14613 10.55378,-11.50143 3.94672,4.47746 3.78301,0.96398 2.54346,-1.14032 2.23722,-1.31116 2.53661,1.34352 3.91417,-1.42776 1.87673,-4.55634 2.60092,0.54002 2.85524,-2.13125 1.79927,0.4936 2.82721,-3.67657 0.34825,-2.08311 -0.96366,-1.27557 1.00277,-1.86663 5.27427,-12.27715 0.61677,-5.73508 1.22889,-0.52354 2.17853,2.44287 3.93586,-0.30117 1.92921,-7.57363 2.79399,-0.56086 1.04975,-2.74107 2.57982,-2.34688 2.77183,-5.69519 0.0849,-5.06755 9.82151,3.82282 c 0.68085,0.34042 0.83288,-5.04915 0.83288,-5.04915 l 3.65256,1.59833 0.0683,2.93816 5.78425,1.29949 2.13295,1.1762 1.65992,2.05569 -0.65455,3.64867 -1.94744,2.59098 0.10985,2.05907 0.58896,1.85291 4.97875,1.26843 4.45127,0.0399 3.06883,0.95864 1.94351,0.3093 0.71481,3.08846 3.19044,0.40253 0.86807,1.20002 -0.43949,4.69008 1.37473,1.10255 -0.47895,1.93039 1.22941,0.78977 -0.2218,1.3846 -2.69399,-0.0949 0.089,1.61552 2.28099,1.54287 0.12154,1.4119 1.77311,1.78538 0.49179,2.52413 -2.55304,1.38131 1.57222,1.4943 5.80102,-1.68583 3.60762,6.01193 z"
     id="VA"
     class="va" />
  <path
     d="m 761.18551,238.96731 1.11201,4.94453 1.08344,6.03133 2.13029,-2.58034 2.26324,-3.07156 2.53838,-0.61555 1.45495,-1.45494 1.77827,-2.58657 1.44498,0.64664 2.90989,-0.32332 2.58658,-2.10159 2.00689,-1.45326 1.84523,-0.48499 1.30392,1.01647 3.64325,1.82163 1.93993,1.77827 1.37412,1.29328 -0.76172,5.55494 -5.83491,-2.54122 -4.24525,-1.62202 -0.10114,5.17843 -2.74764,5.53673 -2.53003,2.42666 -1.19209,2.74939 -2.64358,0.5001 -0.89784,3.60188 -1.04323,3.94967 -3.96824,0.34074 -2.32373,-2.43888 -1.07115,0.55941 -0.63268,5.4697 -1.35029,3.5345 -4.9584,10.95497 0.89669,1.1607 -0.20586,1.90854 -2.80869,3.88447 -1.8085,-0.54429 -2.96805,2.15974 -2.54238,-0.57221 -1.99923,4.55557 c 0,0 -3.25931,1.43022 -3.92291,1.36772 -0.16051,-0.0151 -2.4691,-1.2491 -2.4691,-1.2491 l -2.33652,1.37937 -2.4098,1.0444 -3.74469,-0.88912 -1.1214,-1.16828 -2.19222,-3.02336 -3.14259,-1.98812 -1.71157,-3.62324 -4.28488,-3.46819 -0.64665,-2.26325 -2.58657,-1.45495 -0.80831,-1.6166 -0.24249,-5.25398 2.18242,-0.0808 1.93994,-0.8083 0.16166,-2.74823 1.6166,-1.45495 0.16166,-5.01148 0.96996,-3.87986 1.29329,-0.64664 1.29328,1.13162 0.48499,1.77827 1.77827,-0.96997 0.48498,-1.6166 -1.13162,-1.77827 0,-2.42491 0.96996,-1.29329 2.26325,-3.39487 1.29328,-1.45494 2.1016,0.48498 2.26324,-1.61662 3.07155,-3.39487 2.26326,-3.87986 0.32332,-5.65811 0.48498,-5.01149 0,-4.68816 -1.13162,-3.07155 0.96996,-1.45496 1.28348,-1.29328 3.49125,19.82712 4.63101,-0.75115 12.42832,-1.79965 z"
     id="WV"
     class="wv" />
  <path
     d="m 735.32497,193.32832 -6.09354,4.05335 -3.87985,2.26325 -3.39487,3.71819 -4.04151,3.87985 -3.23321,0.8083 -2.90989,0.48498 -5.49646,2.58657 -2.10158,0.16166 -3.39487,-3.07155 -5.17314,0.64665 -2.58656,-1.45495 -2.38107,-1.35083 -4.89257,0.70341 -10.18462,1.61661 -11.20687,2.18473 1.29329,14.63028 1.77827,13.74117 2.58656,23.4408 0.56582,4.83117 4.12235,-0.12902 2.42491,-0.80831 3.3638,1.50314 2.07049,4.36483 5.13894,-0.0171 1.89174,2.1187 1.76117,-0.0653 2.53839,-1.34146 2.50417,0.3715 5.42128,0.48268 1.72697,-2.13268 2.34565,-1.29328 2.07049,-0.68085 0.64664,2.74824 1.77828,0.96996 3.47569,2.34407 2.18242,-0.0808 1.33312,-0.49248 0.18471,-2.76153 1.58536,-1.45496 0.0992,-4.79272 c 0,0 1.02396,-4.10906 1.02396,-4.10906 l 1.29927,-0.60128 1.32135,1.14774 0.53815,1.69702 1.71913,-1.03742 0.43898,-1.46075 -1.11669,-1.90306 0.0663,-2.31443 0.749,-1.07231 2.15276,-3.30648 1.05022,-1.54334 2.10159,0.48498 2.26325,-1.61661 3.07155,-3.39487 2.77149,-4.07873 0.32033,-5.05551 0.48498,-5.01149 -0.17678,-5.30688 -0.95484,-2.89478 0.35124,-1.18978 1.80439,-1.75011 -2.28879,-9.04733 -2.90989,-19.36177 z"
     id="OH"
     class="oh" />
  <path
     d="m 619.56954,299.97132 0.0653,-2.85858 0.48499,-4.52651 2.26324,-2.90988 1.77828,-3.87987 2.58656,-4.20317 -0.48498,-5.81979 -1.77826,-2.74823 -0.32332,-3.23321 0.8083,-5.49647 -0.48498,-6.95141 -1.2933,-16.00441 -1.29328,-15.35776 -0.97047,-11.72002 3.07106,0.88951 1.45495,0.96996 1.13162,-0.32332 2.10159,-1.93992 2.82957,-1.61699 5.0928,-0.16204 21.98587,-2.26326 5.57573,-0.53316 1.50314,15.95621 4.25135,36.84155 0.59846,5.7716 -0.3715,2.26325 1.22798,1.79537 0.0964,1.37255 -2.52129,1.59951 -3.53943,1.55131 -3.20213,0.55028 -0.59846,4.86693 -4.57469,3.31247 -2.79642,4.01044 0.32332,2.37673 -0.58134,1.5342 -3.32647,0 -1.58553,-1.6166 -2.49331,1.2622 -2.68296,1.50314 0.16167,3.05445 -1.19379,0.25803 -0.46788,-1.01814 -2.16688,-1.50314 -3.25032,1.34148 -1.55131,3.00625 -1.43784,-0.8083 -1.45495,-1.59951 -4.46434,0.48499 -5.59283,0.96996 -2.90989,1.55132 z"
     id="IN"
     class="in" />
  <path
     d="m 619.54145,300.34244 0.0312,-3.22971 0.56739,-4.64596 2.33253,-2.91586 1.86665,-4.07576 2.23302,-3.99533 -0.3715,-5.2524 -2.00521,-3.54257 -0.0964,-3.34668 0.69483,-5.26951 -0.82541,-7.17837 -1.06634,-15.77745 -1.29328,-15.01734 -0.92228,-11.6392 -0.27251,-0.92139 -0.8083,-2.58657 -1.29328,-3.71819 -1.61661,-1.77827 -1.45494,-2.58656 -0.23357,-5.48896 -45.79643,2.59825 0.22862,2.37195 2.28623,0.68587 0.91448,1.14311 0.45725,1.82898 3.88658,3.42934 0.68588,2.28623 -0.68588,3.42934 -1.82898,3.65796 -0.68586,2.51484 -2.28623,1.82899 -1.82898,0.68587 -5.25832,1.37173 -0.68587,1.82898 -0.68587,2.05761 0.68587,1.37174 1.82898,1.60036 -0.22862,4.1152 -1.82899,1.60036 -0.68586,1.60036 0,2.74347 -1.82898,0.45724 -1.60036,1.14312 -0.22862,1.37174 0.22862,2.0576 -1.71467,1.31457 -1.0288,2.80064 0.45724,3.65795 2.28623,7.31593 7.31593,7.54455 5.48693,3.65796 -0.22862,4.34383 0.9145,1.37174 6.40143,0.45724 2.74347,1.37174 -0.68586,3.65796 -2.28623,5.94419 -0.68587,3.20072 2.28622,3.88658 6.40144,5.25832 4.57246,0.68587 2.05759,5.0297 2.05761,3.20071 -0.91449,2.97209 1.60036,4.11521 1.82898,2.05761 1.41403,-0.88069 0.90766,-2.07479 2.21308,-1.7472 2.13147,-0.6144 2.60253,1.1798 3.62699,1.3757 1.18895,-0.29823 0.19987,-2.25845 -1.2873,-2.41179 0.30422,-2.37672 1.8384,-1.34745 3.02254,-0.81029 1.2609,-0.45852 -0.61261,-1.38688 -0.79137,-2.35437 1.4326,-0.98096 1.15747,-3.21403 z"
     id="IL"
     class="il" />
  <path
     d="m 874.06831,178.86288 -3.67743,-14.87881 -4.71882,0.92031 -21.22878,4.74309 1.00019,3.22567 1.45495,7.27474 0.17678,8.96692 -1.22002,2.17487 1.92079,1.93234 4.27153,-3.90564 3.55653,-3.23321 1.93992,-2.10159 0.80831,0.64664 2.74822,-1.45494 5.17314,-1.13162 7.79469,-3.17877 z"
     id="CT"
     class="ct" />
  <path
     d="m 615.06589,197.36866 -0.0667,-3.15742 -1.17911,-4.5265 -0.64664,-6.14309 -1.13162,-2.42491 0.96996,-3.07155 0.8083,-2.90989 1.45495,-2.58656 -0.64665,-3.39487 -0.64664,-3.55653 0.48498,-1.77827 1.93993,-2.42491 0.16166,-2.74823 -0.8083,-1.29328 0.64664,-2.58657 -0.45252,-4.17071 2.74823,-5.65811 2.90989,-6.78974 0.16166,-2.26325 -0.32332,-0.96996 -0.80831,0.48498 -4.20317,6.30476 -2.74823,4.04151 -1.93992,1.77827 -0.8083,2.26324 -1.95495,0.8083 -1.13162,1.93993 -1.45495,-0.32332 -0.16166,-1.77827 1.29329,-2.4249 2.10158,-4.68816 1.77827,-1.6166 0.99083,-2.35785 -2.56045,-1.90134 -1.97482,-10.36699 -3.54747,-1.34198 -1.94626,-2.30833 -12.12971,-2.72164 -2.87589,-1.01205 -8.21312,-2.16729 -7.91792,-1.15875 -3.76516,-5.13067 -0.7504,0.55401 -1.19791,-0.16166 -0.64665,-1.13162 -1.33401,0.29655 -1.13163,0.16166 -1.77826,0.96996 -0.96997,-0.64664 0.64665,-1.93993 1.93992,-3.07155 1.13162,-1.13162 -1.93992,-1.45494 -2.10159,0.8083 -2.90989,1.93992 -7.43638,3.23321 -2.90989,0.64664 -2.90988,-0.48498 -0.98173,-0.87825 -2.1167,2.83518 -0.22862,2.74347 0,8.45903 -1.14312,1.60037 -5.25832,3.88657 -2.28622,5.94419 0.45724,0.22862 2.51485,2.05761 0.68586,3.20072 -1.82898,3.20071 0,3.88659 0.45725,6.63005 2.97209,2.9721 3.42935,0 1.82898,3.20072 3.42933,0.45724 3.88659,5.71557 7.0873,4.11521 2.0576,2.74347 0.9145,7.43024 0.68586,3.31502 2.28623,1.60036 0.22862,1.37174 -2.0576,3.42933 0.22862,3.20073 2.51485,3.88658 2.51485,1.14311 2.97209,0.45724 1.34234,1.38012 45.29836,-2.66945 z"
     id="WI"
     class="wi" />
  <path
     d="m 834.98153,294.31554 2.085,4.91735 3.55653,6.46642 2.4249,2.42491 0.64664,2.26325 -2.4249,0.16166 0.8083,0.64664 -0.32332,4.20317 -2.58657,1.29328 -0.64664,2.10159 -1.29328,2.90989 -3.7182,1.6166 -2.4249,-0.32332 -1.45495,-0.16166 -1.6166,-1.29328 0.32332,1.29328 0,0.96997 1.93993,0 0.8083,1.29328 -1.93993,6.30476 4.20317,0 0.64665,1.6166 2.26324,-2.26324 1.29329,-0.48499 -1.93993,3.55653 -3.07155,4.84982 -1.29328,0 -1.13163,-0.48498 -2.74822,0.64664 -5.17314,2.42491 -6.46642,5.33479 -3.39487,4.68815 -1.93992,6.46642 -0.48498,2.42491 -4.68816,0.48498 -5.45313,1.33666 -9.94641,-8.20253 -12.60954,-7.59805 -2.90989,-0.80831 -12.60953,1.45495 -4.27646,0.75015 -1.6166,-3.23322 -2.97036,-2.1167 -16.48939,0.48498 -7.27474,0.8083 -9.05299,4.52651 -6.14311,2.58656 -21.17755,2.58658 0.50009,-4.05433 1.77827,-1.45494 2.74824,-0.64665 0.64664,-3.7182 4.20318,-2.74822 3.87985,-1.45496 4.20319,-3.55653 4.36483,-2.10159 0.64664,-3.07156 3.87986,-3.87985 0.64664,-0.16166 c 0,0 0,1.13163 0.80831,1.13163 0.8083,0 1.93993,0.32332 1.93993,0.32332 l 2.26325,-3.55654 2.10159,-0.64665 2.26324,0.32333 1.61662,-3.55653 2.90989,-2.58658 0.48498,-2.10159 0.1875,-3.64819 4.2765,-0.0225 7.19859,-0.85579 15.75723,-2.25243 15.13604,-2.08657 21.64048,-4.71935 19.98332,-4.25857 11.17694,-2.40581 5.04998,-1.15688 z m 4.27046,33.20657 2.58658,-2.50575 3.15238,-2.58658 1.53578,-0.64664 0.16166,-2.02076 -0.64664,-6.14312 -1.45495,-2.34408 -0.64665,-1.8591 0.72748,-0.2425 2.74824,5.49648 0.40415,4.44567 -0.16166,3.39489 -3.39488,1.53577 -2.82907,2.42492 -1.13162,1.21246 -1.0508,-0.16166 z"
     id="NC"
     class="nc" />
  <g
     id="dc">
    <title
       id="title59">Washington, D.C.</title>
    <path
       class="dc"
       d="m 805.81945,250.84384 -1.85828,-1.82417 -1.23263,-0.68629 1.44301,-2.02247 2.88909,1.9485 -1.24119,2.58443 z" />
    <circle
       class="circle dc"
       cx="805.81945"
       cy="250.84384"
       id="circle62"
       r="6" />
  </g>
  <path
     d="m 899.62349,173.25394 2.17192,-0.68588 0.45726,-1.71467 1.0288,0.11431 1.0288,2.28624 -1.25742,0.45724 -3.8866,0.11432 0.45724,-0.57156 z m -9.37354,0.80018 2.28622,-2.62917 1.60037,0 1.82899,1.48605 -2.40054,1.0288 -2.17192,1.0288 -1.14312,-0.91448 z m -34.79913,-21.98819 17.64687,-4.64068 2.26326,-0.64664 1.91408,-2.79571 3.73677,-1.66331 2.88924,4.41284 -2.42491,5.17314 -0.32332,1.45494 1.93993,2.58657 1.13162,-0.8083 1.77827,0 2.26324,2.58656 3.87986,5.98144 3.55653,0.48498 2.26324,-0.96996 1.77827,-1.77827 -0.80831,-2.74822 -2.10158,-1.61661 -1.45495,0.8083 -0.96996,-1.29328 0.48498,-0.48498 2.10159,-0.16166 1.77826,0.8083 1.93993,2.42491 0.96996,2.90989 0.32332,2.4249 -4.20317,1.45495 -3.87985,1.93992 -3.87985,4.5265 -1.93993,1.45494 0,-0.96996 2.42491,-1.45495 0.48498,-1.77826 -0.8083,-3.07155 -2.90989,1.45494 -0.8083,1.45495 0.48498,2.26324 -2.06633,1.00043 -2.7472,-4.52713 -3.39488,-4.36484 -2.0705,-1.81247 -6.53327,1.8762 -5.09233,1.05079 -20.67516,4.59221 -0.66776,-4.76785 0.64664,-10.58877 4.28927,-0.88914 6.78975,-1.2933 z"
     id="MA"
     class="ma" />
  <path
     d="m 696.67788,318.25411 -51.89309,5.01149 -15.75956,1.77826 -4.6212,0.51271 -3.86835,-0.0277 -0.22097,4.10083 -8.18538,0.26401 -6.95141,0.64664 -8.09083,-0.12386 -1.41378,7.07286 -1.69623,5.48005 -3.29317,2.75084 -1.34874,4.38106 -0.32332,2.58657 -4.04152,2.26324 1.45494,3.55654 -0.96996,4.36484 -0.96838,0.78965 108.15855,-10.40755 0.40327,-3.95494 1.81073,-1.49039 2.83415,-0.74945 0.67193,-3.71698 4.0986,-2.70496 4.04693,-1.49403 4.08358,-3.57033 4.43609,-2.02546 0.52126,-3.06735 4.0646,-3.98499 0.5508,-0.11417 c 0,0 0.0312,1.13162 0.83955,1.13162 0.8083,0 1.93993,0.35457 1.93993,0.35457 l 2.26325,-3.58779 2.07034,-0.64664 2.27511,0.29521 1.59831,-3.53286 2.95525,-2.64391 0.42168,-1.93911 0.30896,-3.71115 -2.14655,-0.19977 -2.60168,2.02833 -6.99331,0.0291 -18.35929,2.38682 -8.06109,1.9082 z"
     id="TN"
     class="tn" />
  <path
     d="m 593.82477,343.05296 -3.97988,0.7167 -5.11215,-0.63403 0.4207,-1.60207 2.97975,-2.56669 0.94338,-3.65625 -1.82898,-2.9721 -78.41757,2.51485 1.60036,6.85869 -1e-5,8.23042 1.37175,10.97399 0.22862,37.83693 2.28623,1.94329 2.97209,-1.37173 2.74348,1.14311 0.68034,6.5733 55.62126,-1.1406 1.14563,-2.09037 -0.28662,-3.54951 -1.82563,-2.9721 1.59869,-1.48521 -1.59869,-2.5115 0.6842,-2.50983 1.36839,-5.60543 2.51819,-2.06263 -0.68587,-2.28456 3.65797,-5.37179 2.74347,-1.36839 -0.11348,-1.49358 -0.34544,-1.82564 2.85695,-5.59873 2.40304,-1.25659 0.38413,-3.42763 1.77067,-1.2417 -3.14352,-0.48427 -1.34146,-4.01044 2.80408,-2.37671 0.55026,-2.0192 1.27948,-4.04661 1.06619,-3.25539 z"
     id="AR"
     class="ar" />
  <path
     d="m 558.44022,248.11316 -2.51987,-3.08725 -1.14312,-2.28623 -64.35723,2.40054 -2.28626,0.11431 1.25743,2.51485 -0.22862,2.28622 2.51484,3.88659 3.0864,4.11521 3.08641,2.74347 2.16123,0.22862 1.49673,0.9145 0,2.97209 -1.82897,1.60036 -0.45726,2.28622 2.05761,3.42935 2.51486,2.97209 2.51484,1.82898 1.37173,11.65975 0.31414,36.07221 0.22862,4.68675 0.45724,5.38351 22.43299,-0.86682 23.20603,-0.68587 20.80466,-0.80101 11.65474,-0.2303 2.1694,3.426 -0.68419,3.3075 -3.08725,2.40304 -0.57239,1.83734 5.37849,0.45726 3.89496,-0.68588 1.71718,-5.49363 0.65142,-5.85679 2.09803,-2.55516 2.59603,-1.48689 0.0514,-3.05024 1.01602,-1.93648 -1.69423,-2.54377 -1.33093,0.98426 -1.99262,-2.22724 -1.28503,-4.759 0.80101,-2.5182 -1.94413,-3.42766 -1.83064,-4.5758 -4.79941,-0.79934 -6.9688,-5.59875 -1.71886,-4.11353 0.79935,-3.20072 2.05927,-6.05767 0.45892,-2.86363 -1.94914,-1.03131 -6.85534,-0.79767 -1.02797,-1.71216 -0.1118,-4.23036 -5.48694,-3.43101 -6.97551,-7.7715 -2.28622,-7.31593 -0.23029,-4.22532 0.80101,-2.2879 z"
     id="MO"
     class="mo" />
  <path
     d="m 672.29229,355.5518 0,2.18242 0.16166,2.1016 0.64664,3.39487 3.39488,7.92137 2.42491,9.86131 1.45494,6.14311 1.61661,4.84981 1.45495,6.95141 2.10159,6.30477 2.58657,3.39488 0.48498,3.39487 1.93993,0.8083 0.16166,2.1016 -1.77827,4.84981 -0.48498,3.23322 -0.16166,1.93993 1.61661,4.36484 0.32332,5.3348 -0.80831,2.42491 0.64665,0.80831 1.45495,0.8083 0.2047,3.21809 2.23301,3.34953 2.25044,2.16205 7.92138,0.16166 10.81975,-0.64664 21.51239,-1.29328 5.44572,-0.67437 4.57725,0.0277 0.16166,2.90989 2.58657,0.8083 0.32332,-4.36484 -1.61661,-4.5265 1.13163,-1.6166 5.81978,0.8083 4.97741,0.31778 -0.77542,-6.29879 2.26324,-10.02295 1.45495,-4.20318 -0.48499,-2.58656 3.33441,-6.2443 -0.5103,-1.35168 -1.91341,0.70458 -2.58656,-1.2933 -0.64665,-2.10159 -1.29328,-3.55653 -2.26326,-2.10159 -2.58656,-0.64664 -1.61661,-4.84982 -2.92501,-6.335 -4.20317,-1.93993 -2.1016,-1.93993 -1.29329,-2.58657 -2.10158,-1.93993 -2.26325,-1.29329 -2.26325,-2.90989 -3.07155,-2.26324 -4.52651,-1.77828 -0.48498,-1.45494 -2.42491,-2.90989 -0.48498,-1.45495 -3.39488,-4.97048 -3.51987,0.0992 -3.75491,-2.35614 -1.41828,-1.29328 -0.32332,-1.77827 0.8708,-1.93992 2.22664,-1.11014 -0.63394,-2.09722 -41.86975,4.98893 z"
     id="GA"
     class="ga" />
  <path
     d="m 764.94328,408.16488 -1.77706,0.9695 -2.58657,-1.29329 -0.64664,-2.10159 -1.29328,-3.55653 -2.26326,-2.1016 -2.58657,-0.64664 -1.6166,-4.84981 -2.74824,-5.98145 -4.20317,-1.93994 -2.1016,-1.93992 -1.29328,-2.58657 -2.10159,-1.93994 -2.26325,-1.29328 -2.26325,-2.90989 -3.07155,-2.26324 -4.52651,-1.77828 -0.48498,-1.45494 -2.4249,-2.90989 -0.48499,-1.45496 -3.39488,-5.17313 -3.39487,0.16166 -4.04152,-2.42492 -1.29328,-1.29328 -0.32332,-1.77827 0.8083,-1.93992 2.26325,-0.96998 -0.51082,-2.28908 5.7681,-2.33657 9.1155,-4.589 7.77473,-0.80831 16.1144,-0.42248 2.63825,1.87743 1.6791,3.35822 4.30235,-0.60998 12.60953,-1.45496 2.90989,0.80831 12.60954,7.59806 10.10808,8.12168 -5.42117,5.45834 -2.58657,6.1431 -0.48498,6.30476 -1.6166,0.8083 -1.13163,2.74823 -2.4249,0.64664 -2.10159,3.55653 -2.74823,2.74823 -2.26324,3.39487 -1.61661,0.8083 -3.55653,3.39487 -2.90989,0.16166 0.96997,3.23321 -5.01148,5.49646 -2.10159,1.29328 z"
     id="SC"
     class="sc" />
  <path
     d="m 725.9944,295.2707 -2.29332,2.40168 -3.57819,3.99404 -4.92455,5.46467 -1.21577,1.71577 -0.0625,2.10158 -4.37986,2.16409 -5.65812,3.39488 -7.23187,1.79885 -51.86789,4.89886 -15.75956,1.77826 -4.6212,0.51271 -3.86835,-0.0277 -0.22695,4.22028 -8.17941,0.14456 -6.95141,0.64664 -7.98748,-0.0602 1.20778,-1.32008 2.49954,-1.54085 0.22863,-3.20073 0.91449,-1.82898 -1.60682,-2.5389 0.80183,-1.90681 2.26326,-1.77826 2.10158,-0.64665 2.74823,1.29329 3.55654,1.29328 1.13163,-0.32332 0.16166,-2.26325 -1.29329,-2.42491 0.32332,-2.26325 1.93993,-1.45494 2.58658,-0.64665 1.6166,-0.64664 -0.8083,-1.77827 -0.64664,-1.93993 1.50662,-0.9958 c 0.003,-0.0371 1.25396,-3.52229 1.23829,-3.65781 l 3.05322,-1.47868 5.31979,-0.96996 4.49404,-0.48498 1.39244,1.62743 1.52827,0.8708 1.59077,-3.10821 3.18708,-1.28262 2.20509,1.48403 0.41056,0.99904 1.17352,-0.26401 -0.16167,-2.95293 3.13087,-1.74919 2.14809,-1.07348 1.52936,1.66081 3.31815,-0.0442 0.58733,-1.57125 -0.36751,-2.26324 2.60053,-3.9985 4.77655,-3.4379 0.70595,-4.83586 2.92502,-0.45591 3.79146,-1.64568 2.44332,-1.70824 -0.19833,-1.56493 -1.14245,-1.45494 0.56582,-2.99491 4.18485,-0.1175 2.29991,-0.7458 3.34739,1.4291 2.05411,4.36484 5.13229,0.0108 2.05101,2.20819 1.61545,-0.1477 2.60169,-1.27817 5.23706,0.57337 2.57492,0.21751 1.68758,-2.05624 2.61795,-1.42588 1.88178,-0.7071 0.64664,2.83663 2.04343,1.05834 2.64276,2.08249 0.11747,5.67324 0.8083,1.57241 2.58972,1.55628 0.77164,2.29451 4.15989,3.43694 1.80531,3.62324 2.45655,1.65852 z"
     id="KY"
     class="ky" />
  <path
     d="m 631.30647,460.41572 -1.4906,-14.3215 -2.74824,-18.75264 0.16166,-14.06449 0.8083,-31.03885 -0.16166,-16.65106 0.16509,-6.41906 44.48448,-3.61945 -0.1478,2.18242 0.16166,2.1016 0.64665,3.39487 3.39488,7.92137 2.4249,9.86131 1.45495,6.14311 1.6166,4.84982 1.45496,6.95141 2.10158,6.30476 2.58657,3.39489 0.48498,3.39486 1.93994,0.80831 0.16166,2.10159 -1.77828,4.84982 -0.48498,3.23322 -0.16166,1.93992 1.61662,4.36485 0.32332,5.33479 -0.80832,2.42492 0.64666,0.8083 1.45494,0.8083 0.32814,2.88882 -5.59766,-0.35355 -6.78975,0.64665 -25.5424,2.90988 -10.41156,1.40677 -0.22138,2.8774 1.77827,1.77827 2.58657,1.93992 0.58086,7.93544 -5.54206,2.5729 -2.74822,-0.32332 2.74822,-1.93993 0,-0.96996 -3.07154,-5.98144 -2.26325,-0.64664 -1.45495,4.36483 -1.29328,2.74823 -0.64664,-0.16166 -2.74823,0 z"
     id="AL"
     class="al" />
  <path
     d="m 607.96706,459.16125 -3.28461,-3.16614 1.00991,-5.50023 -0.66135,-0.89308 -9.26167,1.00656 -25.02832,0.45892 -0.68419,-2.39468 0.91281,-8.4557 3.31588,-5.94585 5.03136,-8.69102 -0.57407,-2.39802 1.25659,-0.68085 0.45893,-1.95249 -2.28624,-2.05593 -0.11179,-1.94245 -1.83066,-4.34551 -0.14705,-6.3386 -55.47379,0.92397 0.0286,9.57357 0.68587,9.37353 0.68587,3.88658 2.51485,4.11521 0.91449,5.02971 4.34383,5.48693 0.22862,3.20072 0.68587,0.68587 -0.68587,8.45904 -2.97209,5.02969 1.60036,2.05761 -0.68588,2.51484 -0.68586,7.31593 -1.37174,3.20071 0.12246,3.61645 4.68648,-1.52015 12.11335,0.20701 10.34627,3.55653 6.46642,1.13163 3.71819,-1.45495 3.23321,1.13163 3.23321,0.96996 0.8083,-2.10159 -3.23321,-1.13162 -2.58657,0.48498 -2.74823,-1.6166 c 0,0 0.16167,-1.29329 0.80831,-1.45495 0.64664,-0.16166 3.07155,-0.96996 3.07155,-0.96996 l 1.77826,1.45494 1.77827,-0.96996 3.23321,0.64664 1.45494,2.42491 0.32332,2.26325 4.52649,0.32332 1.77827,1.77826 -0.8083,1.61661 -1.29329,0.8083 1.61661,1.6166 8.40634,3.55653 3.55653,-1.29328 0.96997,-2.42491 2.58656,-0.64664 1.77827,-1.45494 1.29328,0.96996 0.8083,2.90989 -2.26324,0.8083 0.64664,0.64664 3.39487,-1.29328 2.26325,-3.39487 0.8083,-0.48498 -2.10159,-0.32332 0.8083,-1.61661 -0.16166,-1.45494 2.10159,-0.48498 1.13162,-1.29329 0.64664,0.8083 c 0,0 -0.16166,3.07155 0.64665,3.07155 0.8083,0 4.20317,0.64665 4.20317,0.64665 l 4.04151,1.93992 0.96996,1.45495 2.90989,0 1.13163,0.96996 2.26324,-3.07155 0,-1.45495 -1.29328,0 -3.39487,-2.74822 -5.81978,-0.80831 -3.23321,-2.26324 1.13163,-2.74823 2.26324,0.32332 0.16166,-0.64664 -1.77826,-0.96996 0,-0.48499 3.23321,0 1.77826,-3.07154 -1.29328,-1.93993 -0.32332,-2.74823 -1.45495,0.16166 -1.93992,2.10159 -0.64664,2.58657 -3.07155,-0.64665 -0.96997,-1.77826 1.77827,-1.93993 1.90333,-3.4456 -1.0611,-2.41227 -1.16564,-3.98133 z"
     id="LA"
     class="la" />
  <path
     d="m 631.55882,459.34458 -0.25426,1.25615 -5.17314,0 -1.45494,-0.8083 -2.10159,-0.32332 -6.78974,1.93992 -1.77826,-0.8083 -2.58657,4.20317 -1.10254,0.77802 -1.12383,-2.48798 -1.14312,-3.88659 -3.42933,-3.20071 1.1431,-5.54455 -0.68586,-0.91449 -1.82898,0.22862 -7.91792,0.87337 -24.5465,0.37337 -0.76974,-2.22536 0.87337,-8.3768 3.11684,-5.67281 5.22707,-9.1449 -0.44574,-2.4326 1.23686,-0.65625 0.43587,-1.91947 -2.31748,-2.07898 -0.11512,-2.14148 -1.83572,-4.12109 -0.109,-5.96277 1.32753,-2.48097 -0.2233,-3.41575 -1.76949,-3.08259 1.52642,-1.48221 -1.57061,-2.49954 0.45725,-1.65221 1.5774,-6.52637 2.48595,-2.03635 -0.64167,-2.36697 3.65797,-5.30253 2.83186,-1.35642 -0.22097,-1.67516 -0.28813,-1.6811 2.87606,-5.56767 2.34572,-1.23151 0.15163,-0.89301 37.34348,-3.88117 0.18486,6.28333 0.16166,16.65106 -0.8083,31.03885 -0.16166,14.06449 2.74824,18.75264 1.48437,13.39529 z"
     id="MS"
     class="ms" />
  <path
     d="m 569.19154,199.5843 0.26438,2.7862 2.22372,0.57726 0.95394,1.22533 0.50001,1.85536 3.79284,3.35865 0.68587,2.3915 -0.67434,3.42447 -1.58231,3.23198 -0.79934,2.74179 -2.17275,1.60204 -1.71551,0.5724 -5.57902,1.8602 -1.39146,3.84869 0.72864,1.37174 1.84051,1.68259 -0.28293,4.03629 -1.76315,1.53786 -0.77141,1.64314 0.12722,2.77632 -1.88631,0.45724 -1.62545,1.10491 -0.27879,1.35263 0.27879,2.11492 -1.55102,1.11607 -2.47053,-3.13328 -1.26257,-2.44987 -65.73582,2.51485 -0.91803,0.16544 -2.0524,-4.51596 -0.22862,-6.63007 -1.60036,-4.11521 -0.68586,-5.25831 -2.28623,-3.65797 -0.91448,-4.80107 -2.74348,-7.54455 -1.14311,-5.37264 -1.37174,-2.17191 -1.60036,-2.74346 1.95398,-4.84383 1.37174,-5.71557 -2.74347,-2.05761 -0.45725,-2.74347 0.9145,-2.51485 1.71467,0 82.654,-1.26948 0.83426,4.18312 2.25218,1.56097 0.25671,1.42309 -2.02954,3.38931 0.19041,3.20552 2.51486,3.7982 2.52679,1.29362 3.07928,0.50305 0.65834,0.83236 z"
     id="IA"
     class="ia" />
  <path
     d="m 475.23781,128.82439 -0.45725,-8.45904 -1.82898,-7.31592 -1.82898,-13.488725 -0.45725,-9.830778 -1.82898,-3.429343 -1.60036,-5.029695 0,-10.28802 0.68586,-3.886587 -1.82093,-5.451667 30.13242,0.03527 0.32332,-8.244684 0.64664,-0.161661 2.26325,0.484982 1.93992,0.808302 0.8083,5.496456 1.45495,6.143098 1.6166,1.616605 4.84982,0 0.32332,1.454944 6.30476,0.323321 0,2.101586 4.84981,0 0.32332,-1.293284 1.13162,-1.131623 2.26325,-0.646642 1.29328,0.969963 2.90989,0 3.87985,2.586567 5.3348,2.424907 2.42491,0.484982 0.48498,-0.969963 1.45494,-0.484982 0.48498,2.909889 2.58657,1.293284 0.48498,-0.484982 1.29329,0.161661 0,2.101586 2.58656,0.969963 3.07155,0 1.61661,-0.808303 3.23321,-3.233209 2.58656,-0.484981 0.80831,1.778265 0.48498,1.293283 0.96996,0 0.96996,-0.808302 8.89133,-0.323321 1.77826,3.071549 0.64665,0 0.71361,-1.084279 4.43991,-0.370665 -0.6121,2.279459 -3.93872,1.837125 -9.24578,4.061128 -4.77474,2.006897 -3.07155,2.586568 -2.42491,3.55653 -2.26324,3.879851 -1.77827,0.808304 -4.52649,5.01147 -1.29329,0.16166 -4.32778,2.75712 -2.46288,3.20511 -0.22862,3.19139 0.0944,8.04335 -1.37604,1.68875 -5.08154,3.75997 -2.23008,5.98241 2.87175,2.23371 0.67989,3.22698 -1.85524,3.23893 0.17079,3.74802 0.36886,6.7304 3.02825,3.00199 3.329,0 1.89111,3.1326 3.37917,0.50327 3.85916,5.67147 7.08729,4.11675 2.14315,2.87512 0.67115,6.43951 -81.2115,1.14479 -0.33792,-35.67685 -0.45724,-2.97209 -4.11521,-3.42934 -1.14312,-1.82898 0,-1.60037 2.0576,-1.60035 1.37174,-1.37174 0.22863,-3.20072 z"
     id="MN"
     class="mn" />
  <path
     d="m 380.34313,320.82146 -16.68418,-1.27331 -0.88022,10.95243 20.46538,1.15688 32.05555,1.3036 -2.3346,24.41865 -0.45725,17.83257 0.22863,1.60036 4.34383,3.65796 2.0576,1.14311 0.68587,-0.22862 0.68587,-2.05761 1.37174,1.82899 2.0576,0 0,-1.37174 2.74347,1.37174 -0.45724,3.88658 4.11521,0.22862 2.51484,1.14312 4.11521,0.68587 2.51485,1.82898 2.28623,-2.0576 3.42934,0.68586 2.51485,3.42934 0.91448,0 0,2.28623 2.28623,0.68586 2.28622,-2.28622 1.82899,0.68586 2.51484,0 0.9145,2.51486 6.30107,2.07897 1.37174,-0.68586 1.82898,-4.11521 1.14311,0 1.14312,2.0576 4.11521,0.68587 3.65795,1.37174 2.9721,0.91449 1.82899,-0.91449 0.68586,-2.51485 4.34383,0 2.0576,0.91449 2.74347,-2.05761 1.14312,0 0.68587,1.60036 4.1152,0 1.60036,-2.0576 1.82899,0.45724 2.0576,2.51486 3.20071,1.82897 3.20073,0.9145 1.94108,1.11893 -0.3891,-37.21701 -1.37175,-10.97398 -0.16046,-8.87234 -1.43989,-6.53773 -0.7782,-7.17964 -0.0681,-3.81622 -12.13684,0.31874 -46.41004,-0.45724 -45.03891,-2.05762 -24.2912,-1.37173 z"
     id="OK"
     class="ok" />
  <path
     d="m 361.46423,330.57358 22.69079,1.08594 31.09269,1.14312 -2.33461,23.4558 -0.29676,18.15352 0.0681,2.08179 4.34383,3.81843 1.98665,1.44716 1.18421,-0.55969 0.37337,-1.81772 1.14032,1.80362 2.11164,0.0439 -0.003,-1.44709 1.66994,0.96727 1.1387,0.40887 -0.35927,3.96765 4.08819,0.0935 2.92532,1.19717 3.95474,0.52538 2.38138,2.07898 2.1241,-2.07617 3.72494,0.61491 2.22091,3.22494 1.07496,0.32096 -0.16047,1.96527 2.21361,0.79229 2.33015,-2.0548 2.13302,0.61492 2.22938,0.0355 0.93307,2.43544 6.32809,2.11445 1.59305,-0.76693 1.48947,-4.17771 0.34072,0 0.90649,0.0816 1.22905,2.06863 3.92988,0.66528 3.337,1.12288 3.42563,1.19597 1.84058,-0.975 0.71376,-2.51484 4.45322,0.0442 1.80874,0.93078 2.79925,-2.10651 1.10364,0.0442 0.85104,1.60507 4.05472,0 1.51887,-2.02862 1.86737,0.40724 1.94603,2.40328 3.52057,2.04415 2.85876,0.80981 1.51362,0.79984 2.4467,1.99732 3.04304,-1.32779 2.69109,1.13888 0.56381,6.10594 -0.0398,9.70217 0.68586,9.53401 0.70218,3.60511 2.67533,4.41986 0.89818,4.95073 4.21595,5.53802 0.19602,3.14494 0.74637,0.78584 -0.73007,8.38007 -2.8721,5.0065 1.53297,2.15287 -0.63008,2.33808 -0.66957,7.40432 -1.50432,3.338 0.29488,3.50235 -5.66488,1.58518 -9.86129,4.5265 -0.96996,1.93992 -2.58657,1.93993 -2.10158,1.45494 -1.29329,0.8083 -5.65811,5.3348 -2.74823,2.10159 -5.3348,3.2332 -5.65811,2.42491 -6.30476,3.39487 -1.77826,1.45495 -5.81978,3.55653 -3.39487,0.64664 -3.87985,5.49645 -4.04151,0.32333 -0.96997,1.93992 2.26325,1.93993 -1.45495,5.49645 -1.29328,4.5265 -1.13162,3.87985 -0.8083,4.52649 0.8083,2.42491 1.77826,6.9514 0.96997,6.14309 1.77826,2.74823 -0.96996,1.45495 -3.07155,1.93992 -5.65812,-3.87985 -5.49645,-1.13162 -1.29329,0.48498 -3.23321,-0.64664 -4.20317,-3.07155 -5.17313,-1.13162 -7.59805,-3.39487 -2.10158,-3.87986 -1.29329,-6.46641 -3.2332,-1.93993 -0.64665,-2.26325 0.64665,-0.64664 0.32332,-3.39487 -1.29329,-0.64664 -0.64664,-0.96996 1.29328,-4.36484 -1.6166,-2.26324 -3.23321,-1.29329 -3.39487,-4.36483 -3.55653,-6.62808 -4.20317,-2.58657 0.16166,-1.93992 -5.3348,-12.2862 -0.8083,-4.20317 -1.77826,-1.93992 -0.16166,-1.45495 -5.98144,-5.33479 -2.58657,-3.07155 0,-1.13163 -2.58657,-2.10158 -6.78974,-1.13163 -7.43638,-0.64664 -3.07155,-2.26324 -4.52649,1.77826 -3.55653,1.45495 -2.26325,3.2332 -0.96996,3.7182 -4.36483,6.14309 -2.42491,2.42491 -2.58657,-0.96996 -1.77826,-1.13163 -1.93993,-0.64664 -3.87985,-2.26324 0,-0.64665 -1.77826,-1.93992 -5.17314,-2.10159 -7.43638,-7.7597 -2.26325,-4.68815 0,-8.08303 -3.23321,-6.46642 -0.48498,-2.74822 -1.6166,-0.96997 -1.13163,-2.10158 -5.01147,-2.10159 -1.29328,-1.6166 -7.11307,-7.92137 -1.29328,-3.23321 -4.68816,-2.26325 -1.45495,-4.36487 -2.58659,-2.90987 -1.93991,-0.48496 -0.64923,-4.67764 8.00187,0.68589 29.03499,2.74345 29.03508,1.60036 2.23353,-19.46182 3.88655,-55.55502 1.60039,-18.74732 1.37174,0.0286 m 99.02935,229.66274 -0.56581,-7.11308 -2.74824,-7.19392 -0.56582,-7.03225 1.53578,-8.24471 3.31406,-6.87059 3.4757,-5.41565 3.1524,-3.55655 0.64664,0.2425 -4.769,6.6281 -4.36484,6.54728 -2.02077,6.62809 -0.32332,5.17316 0.88913,6.14312 2.58658,7.19392 0.48498,5.17314 0.16166,1.45496 -0.88913,0.24248 z"
     id="TX"
     class="tx" />
  <path
     d="m 288.15255,424.01315 -0.77541,-4.7481 8.64378,0.5254 30.17176,2.9459 27.26816,1.68989 2.21527,-18.70747 3.85736,-55.87597 1.73768,-19.38923 1.5717,0.12856 0.8254,-11.16339 -104.00445,-10.63595 -17.49735,120.43481 15.46067,1.98915 1.29328,-10.02295 29.23215,2.82935 z"
     id="NM"
     class="nm" />
  <path
     d="m 507.88059,324.38028 -12.61826,0.20443 -46.08909,-0.45723 -44.55748,-2.05763 -24.62974,-1.25741 3.89379,-64.59497 22.08346,0.67517 40.28913,0.8414 44.30124,0.98758 5.09563,0 2.1844,2.1624 2.01766,-0.0214 1.6403,1.01247 -0.0625,3.00923 -1.82898,1.72537 -0.33225,2.23217 1.84308,3.40233 2.95236,3.19506 2.32735,1.61446 1.30077,11.24082 0.18913,36.08573 z"
     id="KS"
     class="ks" />
  <path
     d="m 486.09787,240.70058 3.23061,7.01991 -0.12863,2.30252 3.45922,5.49388 2.71929,3.15234 -5.04948,0 -43.48256,-0.93868 -40.78686,-0.8903 -22.25222,-0.78387 1.07277,-21.32785 -32.31824,-2.92025 4.34383,-44.00986 15.54633,1.02881 20.11879,1.1431 17.83257,1.14312 23.77676,1.14311 10.74526,-0.45724 2.0576,2.28622 4.80108,2.9721 1.14311,0.91449 4.34383,-1.37174 3.88659,-0.45724 2.74347,-0.22863 1.82898,1.37174 4.05743,1.60036 2.97209,1.60036 0.45725,1.60036 0.91449,2.0576 1.82898,0 0.79798,0.0462 0.89423,4.68182 2.92026,8.46792 0.57253,3.75671 2.52349,3.77425 0.56959,5.11414 1.60724,4.24037 0.25234,6.47426 z"
     id="NE"
     class="ne" />
  <path
     d="m 476.44687,204.02465 -0.0474,-0.58087 -2.89571,-4.84544 1.86023,-4.71211 1.49273,-5.88654 -2.78187,-2.07971 -0.38516,-2.74346 0.7924,-2.55435 3.18851,0.0152 -0.12308,-5.00614 -0.3333,-30.17425 -0.61773,-3.76758 -4.07232,-3.33093 -0.98263,-1.67696 -0.0625,-1.60882 2.02212,-1.5294 1.53222,-1.66567 0.24496,-2.65679 -58.25709,-1.60035 -54.79921,-3.44909 -5.32527,63.69119 14.59027,0.9038 19.94985,1.20561 17.74305,0.92859 23.77676,1.30358 11.9827,-0.42464 1.9663,2.24518 5.19464,3.25335 0.76389,0.72275 4.54144,-1.45281 6.54054,-0.61491 1.6753,1.33627 4.20451,1.59613 2.94506,1.63583 0.39898,1.48381 1.03949,2.24088 2.23737,-0.20136 z"
     id="SD"
     class="sd" />
  <path
     d="m 475.30528,128.91846 -0.61491,-8.43367 -1.67695,-6.81592 -1.89149,-13.02422 -0.45724,-10.987026 -1.73946,-3.077142 -1.75661,-5.194396 0.0312,-10.44427 0.62336,-3.824087 -1.8341,-5.467761 -28.64225,-0.564027 -18.59095,-0.646642 -26.51232,-1.293284 -22.94634,-2.133869 -6.99324,67.176834 54.93224,3.34365 58.06901,1.38583 z"
     id="ND"
     class="nd" />
  <path
     d="m 360.37668,143.27587 -106.7426,-13.45706 -14.08348,88.45803 113.26461,13.58549 7.56147,-88.58646 z"
     id="WY"
     class="wy" />
  <path
     d="M 369.20952,56.969133 338.5352,54.1613 l -29.26055,-3.55653 -29.26054,-4.041512 -32.3321,-5.334795 -18.42929,-3.39487 -32.72365,-6.932736 -4.47902,21.347532 3.42934,7.544541 -1.37174,4.572452 1.82898,4.572451 3.20073,1.371739 4.62082,10.769453 2.6951,3.176523 0.45724,1.143118 3.42934,1.143118 0.45725,2.057593 -7.0873,17.603953 0,2.51485 2.51485,3.20071 0.91448,0 4.80107,-2.97209 0.68588,-1.14312 1.60036,0.68587 -0.22863,5.25832 2.74348,12.57425 2.97209,2.51484 0.91448,0.68587 1.82899,2.28622 -0.45725,3.42935 0.68587,3.42933 1.14312,0.9145 2.28622,-2.28623 2.74347,0 3.20072,1.60036 2.51485,-0.91449 4.11521,0 3.65795,1.60036 2.74348,-0.45725 0.45724,-2.9721 2.97209,-0.68586 1.37174,1.37174 0.45725,3.20071 1.42587,0.83464 1.88695,-11.03474 106.74567,13.42892 8.80221,-86.299157 z"
     id="MT"
     class="mt" />
  <path
     d="m 380.03242,320.96457 4.90324,-86.32496 -113.38856,-12.64396 -12.21382,87.93916 120.69914,11.02976 z"
     id="CO"
     class="co" />
  <path
     d="m 148.47881,176.48395 8.77087,-35.22072 1.37174,-4.22952 2.51484,-5.94418 -1.25742,-2.28623 -2.51486,0.11431 -0.80017,-1.0288 0.45725,-1.14311 0.34292,-3.08641 4.45815,-5.48695 1.82898,-0.45724 1.14311,-1.14311 0.57156,-3.20072 0.91448,-0.68586 3.88659,-5.82988 3.88659,-4.34383 0.22862,-3.772268 -3.42934,-2.629163 -1.53555,-4.400983 13.62491,-63.341691 13.51759,2.528111 -4.40808,21.383013 3.56035,7.485352 -1.58111,4.66084 1.96985,4.641233 3.13822,1.255191 3.83534,9.556588 3.51269,4.437154 0.50725,1.143118 3.34095,1.143118 0.36885,2.097075 -6.97101,17.376092 -0.16518,2.56593 2.63112,3.3217 0.90508,-0.0489 4.91129,-3.0256 0.67742,-1.09497 1.56231,0.65886 -0.27844,5.35372 2.73925,12.58271 3.91783,3.17791 1.68118,2.16545 -0.71661,4.08386 1.06622,2.80741 1.06163,1.09128 2.47929,-2.35142 2.84816,0.0489 2.91925,1.3352 2.78002,-0.68193 3.79426,-0.16048 3.9789,1.60036 2.74348,-0.29676 0.49674,-3.03731 2.93259,-0.76483 1.26017,1.51591 0.44093,2.94496 1.42434,1.21321 -8.386,53.60866 c 0,0 -87.96599,-16.70061 -94.95939,-18.20435 z"
     id="ID"
     class="id" />
  <path
     d="m 259.49836,310.10509 -83.74903,-11.87225 20.58761,-112.54135 46.78031,8.74514 -1.4848,10.63042 -2.31162,13.17266 7.80769,0.92837 16.40652,1.80479 8.21097,0.85564 -12.24765,88.27658 z"
     id="UT"
     class="ut" />
  <path
     d="m 144.9112,382.62909 -2.62701,2.15833 -0.32332,1.45495 0.48498,0.96996 18.91427,10.66959 12.12454,7.59804 14.7111,8.56801 16.81269,10.02295 12.2862,2.42491 24.95116,2.70491 17.25561,-119.12707 -83.73563,-11.91725 -3.09239,16.41246 -1.60629,0.0153 -1.71467,2.62916 -2.51485,-0.11432 -1.25742,-2.74347 -2.74347,-0.34293 -0.9145,-1.14311 -0.91448,0 -0.9145,0.57156 -1.94329,1.0288 -0.1143,6.97298 -0.22864,1.71467 -0.57154,12.57424 -1.48605,2.17191 -0.57156,3.31503 2.74347,4.91539 1.25742,5.82988 0.80019,1.0288 1.0288,0.57156 -0.11432,2.28622 -1.60035,1.37173 -3.42934,1.71467 -1.94329,1.9433 -1.48605,3.65795 -0.57156,4.91539 -2.85778,2.74347 -2.0576,0.68587 0.13569,0.82988 -0.45725,1.71467 0.45725,0.80018 3.65796,0.57154 -0.57156,2.74348 -1.48605,2.17191 -3.77227,0.91449 z"
     id="AZ"
     class="az" />
  <path
     d="m 196.39273,185.57552 -23.63891,128.82275 -1.83224,0.34915 -1.57276,2.40618 -2.37294,0.0107 -1.47195,-2.74347 -2.61847,-0.37842 -0.77092,-1.10763 -1.03783,-0.054 -2.77837,1.64429 -0.31026,6.78548 -0.36209,5.77717 -0.34857,8.59281 -1.4471,2.08916 -2.43892,-1.07403 -69.079886,-104.20119 18.989116,-67.58491 93.0921,20.66601 z"
     id="NV"
     class="nv" />
  <path
     d="m 148.72184,175.53153 8.8497,-34.80151 1.05079,-4.22952 2.35437,-5.62323 -0.61551,-1.16288 -2.51486,-0.0462 -1.2816,-1.6707 0.45724,-1.46407 0.50341,-3.24688 4.45815,-5.48695 1.82898,-1.09915 1.14311,-1.14311 1.48604,-3.56563 4.04706,-5.6694 3.56563,-3.8624 0.22862,-3.451314 -3.26886,-2.468682 -1.78341,-4.642625 -12.66377,-3.61197 -15.08909,-3.54365 -15.43202,0.114306 -0.45724,-1.371729 -5.48695,2.057604 -4.45814,-0.571559 -2.40054,-1.600361 -1.25742,0.685875 -4.68676,-0.228632 -1.71467,-1.371729 -5.25832,-2.057604 -0.800182,0.114316 -4.34383,-1.486056 -1.943291,1.828983 -6.172812,-0.342927 -5.944183,-4.115209 0.685865,-0.80018 0.228621,-7.773173 -2.286225,-3.886577 -4.115208,-0.571559 -0.685865,-2.514847 -2.353932,-0.466565 -5.798525,2.058784 -2.263247,6.466418 -3.233209,10.022949 -3.23321,6.466419 -5.011474,14.064461 -6.466419,13.579473 -8.083023,12.60952 -1.939926,2.90989 -0.808302,8.568 0.386095,12.08023 112.578342,26.32133 z"
     id="OR"
     class="or" />
  <path
     d="m 102.07324,7.6117734 4.36483,1.4549443 9.69963,2.7482283 8.568,1.939925 20.0459,5.658117 22.95579,5.658116 15.22312,3.207173 -13.63236,63.585811 -12.445,-3.525318 -15.50801,-3.570679 -15.22929,0.03324 -0.45557,-1.344699 -5.59922,2.179293 -4.59543,-0.736744 -2.14697,-1.584054 -1.31321,0.657976 -4.73566,-0.140243 -1.69836,-1.349633 -5.26304,-2.112303 -0.734971,0.146918 -4.389122,-1.524448 -1.893298,1.817379 -6.265906,-0.298733 -5.925698,-4.125702 0.778957,-0.932763 0.121223,-7.677452 -2.281999,-3.839701 -4.115208,-0.60704 -0.67741,-2.510616 -2.275512,-0.456932 -3.554948,1.230576 -2.263247,-3.219247 0.323321,-2.909889 2.748228,-0.323321 1.616605,-4.041511 -2.586568,-1.131624 0.161661,-3.718191 4.364833,-0.646641 -2.748228,-2.748228 -1.454945,-7.113061 0.646642,-2.909888 0,-7.921363 -1.778265,-3.23321 2.263247,-9.376307 2.101586,0.484981 2.424907,2.909889 2.748228,2.586567 3.233209,1.939926 4.526493,2.101586 3.071551,0.646642 2.909889,1.454944 3.394873,0.969963 2.263246,-0.16166 0,-2.424908 1.293284,-1.131623 2.101582,-1.293284 0.32333,1.131624 0.32332,1.778265 -2.263251,0.484981 -0.323321,2.101586 1.778262,1.454945 1.13163,2.424907 0.64664,1.939925 1.45494,-0.16166 0.16166,-1.293284 -0.96996,-1.293284 -0.48498,-3.233209 0.8083,-1.778265 -0.64664,-1.454944 0,-2.263247 1.77827,-3.55653 -1.13163,-2.586568 -2.42491,-4.8498139 0.32333,-0.8083023 1.13162,-0.8083024 z m -9.456692,5.9789646 2.020764,-0.16166 0.484982,1.374119 1.535779,-1.616615 2.344082,0 0.808303,1.535779 -1.53578,1.69744 0.646652,0.808313 -0.727477,2.020761 -1.374119,0.404146 c 0,0 -0.889138,0.08084 -0.889138,-0.242485 0,-0.323321 1.454955,-2.586578 1.454955,-2.586578 l -1.69744,-0.565817 -0.323321,1.454954 -0.727478,0.646642 -1.535782,-2.263257 -0.484982,-2.505742 z"
     id="WA"
     class="wa" />
  <g
     id="ca"
     style="fill:#00ff00">
    <title
       id="title93">California</title>
    <path
       d="m 144.69443,382.19813 3.94008,-0.48862 1.48604,-2.01144 0.54454,-2.94109 -3.55152,-0.59012 -0.51417,-0.66822 0.4775,-2.03231 -0.15928,-0.58967 1.92257,-0.61959 3.04278,-2.83268 0.58156,-4.9951 1.3799,-3.40211 1.94329,-2.16626 3.51887,-1.58967 1.65439,-1.60483 0.0687,-2.10884 -0.99333,-0.58001 -1.02315,-1.07273 -1.15522,-5.84845 -2.6852,-4.83009 0.56581,-3.505 -2.41958,-1.02931 -69.061322,-104.1784 18.902112,-67.60149 -67.079863,-15.69796 -1.506896,4.73324 -0.161661,7.43638 -5.173135,11.80121 -3.071548,2.58657 -0.323321,1.13162 -1.778266,0.80831 -1.454944,4.20317 -0.808302,3.23321 2.748228,4.20317 1.616605,4.20317 1.131623,3.55653 -0.323321,6.46642 -1.778265,3.07155 -0.646642,5.81978 -0.969963,3.71819 1.778265,3.87985 2.748228,4.52649 2.263247,4.84982 1.293283,4.04151 -0.32332,3.23321 -0.323321,0.48498 0,2.10158 5.658116,6.30476 -0.484981,2.42491 -0.646642,2.26325 -0.646642,1.93992 0.16166,8.24469 2.101586,3.71819 1.939926,2.58656 2.748228,0.48499 0.969963,2.74822 -1.131623,3.55653 -2.101587,1.61661 -1.131623,0 -0.808302,3.87985 0.484981,2.90989 3.23321,4.36483 1.616604,5.3348 1.454944,4.68815 1.293284,3.07155 3.39487,5.81978 1.454944,2.58656 0.484982,2.90989 1.616604,0.96996 0,2.42491 -0.808302,1.93993 -1.778265,7.11306 -0.484982,1.93992 2.424908,2.74823 4.203172,0.48498 4.526493,1.77827 3.879851,2.10158 2.909889,0 2.909888,3.07155 2.586567,4.84982 1.131624,2.26324 3.879851,2.10159 4.849814,0.8083 1.454944,2.10159 0.646642,3.23321 -1.454944,0.64664 0.323321,0.96996 3.233211,0.8083 2.748228,0.16167 3.159889,-1.68685 3.879854,4.20317 0.808302,2.26325 2.586572,4.20317 0.32332,3.23321 0,9.37631 0.48498,1.77826 10.02295,1.45495 19.72257,2.74822 13.84504,1.3497 z m -88.135212,-43.71668 1.293288,1.53578 -0.16166,1.29329 -3.233221,-0.0808 -0.565814,-1.21246 -0.646644,-1.45495 3.314051,-0.0808 z m 1.939932,0 1.212458,-0.64664 3.556543,2.10159 3.07156,1.21245 -0.889136,0.64666 -4.526509,-0.2425 -1.61661,-1.61661 -0.808306,-1.45495 z m 20.692614,19.80348 1.778265,2.34408 0.808313,0.96997 1.535779,0.56581 0.565807,-1.45495 -0.969963,-1.77827 -2.667403,-2.02076 -1.050798,0.16166 0,1.21246 z m -1.454955,8.64886 1.778276,3.15239 1.212458,1.93994 -1.454954,0.24248 -1.293284,-1.21245 c 0,0 -0.727477,-1.45495 -0.727477,-1.85911 0,-0.40414 0,-2.18242 0,-2.18242 l 0.484981,-0.0808 z"
       
       class="ca"
       style="fill:#00ff00" />
  </g>
  <g
     id="pr">
    <title
       id="title97">Puerto Rico</title>
    <path
       class="territory pr"
       d="M 569.21588,530.23145 C 569.21588,530.23145 570.07374,528.08983 570.07374,528.08983 C 570.07374,528.08983 571.78704,528.51816 571.78704,528.51816 C 571.78704,528.51816 573.50035,529.80314 573.50035,529.80314 C 573.50035,529.80314 580.78429,530.65978 580.78429,530.65978 C 580.78429,530.65978 588.06824,530.23145 588.06824,530.23145 C 588.06824,530.23145 591.06772,530.23145 591.06772,530.23145 C 591.06772,530.23145 593.63768,531.08811 593.63768,531.08811 C 593.63768,531.08811 595.35219,529.80314 595.35219,529.80314 C 595.35219,529.80314 597.49382,529.80314 597.49382,529.80314 C 597.49382,529.80314 602.63493,530.23145 602.63493,530.23145 C 602.63493,530.23145 607.77604,531.51644 607.77604,531.51644 C 607.77604,531.51644 609.49055,533.23094 609.49055,533.23094 C 609.49055,533.23094 612.48884,533.23094 612.48884,533.23094 C 612.48884,533.23094 612.91716,535.8021 612.91716,535.8021 C 612.91716,535.8021 612.48884,537.51541 612.48884,537.51541 C 612.48884,537.51541 609.06224,537.94374 609.06224,537.94374 C 609.06224,537.94374 606.9194,538.8004 606.9194,538.8004 C 606.9194,538.8004 606.06155,540.94202 606.06155,540.94202 C 606.06155,540.94202 604.77656,543.08484 604.77656,543.08484 C 604.77656,543.08484 602.20661,544.36983 602.20661,544.36983 C 602.20661,544.36983 597.06428,544.36983 597.06428,544.36983 C 597.06428,544.36983 592.78104,544.36983 592.78104,544.36983 C 592.78104,544.36983 590.63941,543.51318 590.63941,543.51318 C 590.63941,543.51318 590.63941,543.51318 590.63941,543.51318 C 590.63941,543.51318 586.35494,543.51318 586.35494,543.51318 C 586.35494,543.51318 584.21211,542.65652 584.21211,542.65652 C 584.21211,542.65652 580.78429,543.51318 580.78429,543.51318 C 580.78429,543.51318 576.49983,543.51318 576.49983,543.51318 C 576.49983,543.51318 574.3582,541.79987 574.3582,541.79987 C 574.3582,541.79987 571.78704,542.65652 571.78704,542.65652 C 571.78704,542.65652 568.35923,543.08484 568.35923,543.08484 C 568.35923,543.08484 567.93089,540.94202 567.93089,540.94202 C 567.93089,540.94202 568.78756,539.65704 568.78756,539.65704 C 568.78756,539.65704 569.64421,537.51541 569.64421,537.51541 C 569.64421,537.51541 568.78756,534.94425 568.78756,534.94425 C 568.78756,534.94425 565.36096,532.3731 565.36096,532.3731 C 565.36096,532.3731 566.64593,531.51644 566.64593,531.51644 C 566.64593,531.51644 569.21588,530.23145 569.21588,530.23145 z M 615.92755,541.80593 C 615.92755,541.80593 614.06905,542.42543 614.06905,542.42543 C 614.06905,542.42543 617.78604,543.66442 617.78604,543.66442 C 617.78604,543.66442 622.74203,542.42543 622.74203,542.42543 C 622.74203,542.42543 623.98103,540.56694 623.98103,540.56694 C 623.98103,540.56694 620.88354,541.18643 620.88354,541.18643 C 620.88354,541.18643 615.92755,541.80593 615.92755,541.80593 z M 624.60052,537.46943 C 624.60052,537.46943 623.05178,536.54018 623.05178,536.54018 C 623.05178,536.54018 625.22002,534.99145 625.22002,534.99145 C 625.22002,534.99145 625.83952,536.54018 625.83952,536.54018 C 625.83952,536.54018 624.60052,537.46943 624.60052,537.46943 z " />
  </g>
  <g
     id="vi">
    <title
       id="title101">U.S. Virgin Islands</title>
    <path
       class="territory vi"
       d="M 645.38112,524.0683 C 645.38112,524.0683 643.92191,525.16331 643.92191,525.16331 C 643.92191,525.16331 642.09849,526.2559 642.09849,526.2559 C 642.09849,526.2559 642.4627,527.71511 642.4627,527.71511 C 642.4627,527.71511 644.28611,528.44351 644.28611,528.44351 C 644.28611,528.44351 646.84033,528.07931 646.84033,528.07931 C 646.84033,528.07931 647.93293,529.90393 647.93293,529.90393 C 647.93293,529.90393 649.75633,529.90393 649.75633,529.90393 C 649.75633,529.90393 650.85013,528.81012 650.85013,528.81012 C 650.85013,528.81012 654.86235,528.07931 654.86235,528.07931 C 654.86235,528.07931 656.68454,527.71511 656.68454,527.71511 C 656.68454,527.71511 658.14498,526.62009 658.14498,526.62009 C 658.14498,526.62009 657.41537,525.16331 657.41537,525.16331 C 657.41537,525.16331 655.22776,525.16331 655.22776,525.16331 C 655.22776,525.16331 650.12053,524.0683 650.12053,524.0683 C 650.12053,524.0683 645.38112,524.0683 645.38112,524.0683 z M 659.83287,525.46942 C 659.83287,525.46942 659.54852,526.46159 659.54852,526.46159 C 659.54852,526.46159 660.40154,526.95888 660.40154,526.95888 C 660.40154,526.95888 662.39555,526.71084 662.39555,526.71084 C 662.39555,526.71084 663.81968,527.45618 663.81968,527.45618 C 663.81968,527.45618 664.95825,527.20692 664.95825,527.20692 C 664.95825,527.20692 665.24381,525.96429 665.24381,525.96429 C 665.24381,525.96429 665.24381,525.96429 665.24381,525.96429 C 665.24381,525.96429 666.66671,524.97213 666.66671,524.97213 C 666.66671,524.97213 666.95225,523.97875 666.95225,523.97875 C 666.95225,523.97875 665.81248,523.48267 665.81248,523.48267 C 665.81248,523.48267 664.10403,523.97875 664.10403,523.97875 C 664.10403,523.97875 662.11001,523.23585 662.11001,523.23585 C 662.11001,523.23585 661.25698,523.97875 661.25698,523.97875 C 661.25698,523.97875 660.97144,524.97213 660.97144,524.97213 C 660.97144,524.97213 659.83287,525.46942 659.83287,525.46942 z M 654.52841,545.88869 C 654.52841,545.88869 657.13467,545.23651 657.13467,545.23651 C 657.13467,545.23651 658.76448,545.5632 658.76448,545.5632 C 658.76448,545.5632 661.04404,544.26009 661.04404,544.26009 C 661.04404,544.26009 662.02289,544.58556 662.02289,544.58556 C 662.02289,544.58556 662.67263,545.5632 662.67263,545.5632 C 662.67263,545.5632 663.65028,547.19303 663.65028,547.19303 C 663.65028,547.19303 665.60436,546.21537 665.60436,546.21537 C 665.60436,546.21537 666.58201,546.86633 666.58201,546.86633 C 666.58201,546.86633 670.85317,546.27828 670.85317,546.27828 C 670.85317,546.27828 671.33836,548.70667 671.33836,548.70667 C 671.33836,548.70667 669.51494,549.47137 669.51494,549.47137 C 669.51494,549.47137 666.25775,549.47137 666.25775,549.47137 C 666.25775,549.47137 660.71854,551.10119 660.71854,551.10119 C 660.71854,551.10119 658.43899,550.77691 658.43899,550.77691 C 658.43899,550.77691 654.52841,551.42668 654.52841,551.42668 C 654.52841,551.42668 653.2265,550.77691 653.2265,550.77691 C 653.2265,550.77691 652.24885,551.42668 652.24885,551.42668 C 652.24885,551.42668 649.64137,551.75455 649.64137,551.75455 C 649.64137,551.75455 648.10352,551.25728 649.31591,550.44901 C 651.26998,549.1471 650.29355,546.86633 650.29355,546.86633 C 650.29355,546.86633 654.52841,545.88869 654.52841,545.88869 z " />
  </g>
  <g
     id="gu">
    <title
       id="title105">Guam</title>
    <path
       class="territory gu"
       d="M 584.94216,560.61056 C 584.98413,560.61056 585.02611,560.61056 585.06809,560.61056 C 585.49616,560.61056 585.90761,560.75049 586.32738,560.82048 C 586.87853,560.91235 587.12342,561.57203 587.58667,561.76509 C 588.08146,561.97127 588.22474,562.40182 588.5941,562.70968 C 588.70177,562.79941 588.81049,562.98022 588.84596,563.02455 C 589.56987,563.62788 588.09084,564.20521 589.72747,563.8642 C 589.7644,563.8565 591.02373,564.3442 591.23862,564.38897 C 591.85736,564.51789 592.52568,564.49971 593.00162,564.59889 C 593.60289,564.72417 592.39728,565.50129 592.12012,565.9633 C 591.85888,566.39877 591.99419,567.05104 591.99419,567.53766 C 591.99419,568.15101 591.86126,568.50558 591.74234,568.90206 C 591.59875,569.38077 591.28439,569.70356 590.98675,569.95163 C 590.67268,570.21339 590.08542,570.48054 589.60153,570.58137 C 588.9563,570.71581 589.0078,571.10614 588.09038,571.10614 C 587.65169,571.10614 587.59204,572.14676 587.46073,572.36561 C 587.07765,573.00419 586.32628,572.36929 586.07551,573.20527 C 585.91275,573.7479 585.57777,573.72507 585.19401,574.04491 C 584.83321,574.34563 584.29052,574.52637 583.93472,574.67463 C 583.32572,574.92843 582.94781,575.19941 582.17172,575.19941 C 581.86376,575.19941 581.27507,576.12586 581.16428,576.24898 C 580.79543,576.65886 580.62292,576.91007 580.28277,577.19358 C 580.13246,577.31885 579.09378,577.10022 578.64569,577.19358 C 578.58033,577.2072 578.64569,578.62575 578.64569,578.76791 C 578.64569,579.01496 577.8237,579.40342 577.76419,579.50261 C 577.64936,579.69401 578.01605,580.74566 578.01605,581.07695 C 578.01605,581.59278 577.99894,582.18356 577.89012,582.54632 C 577.74569,583.02783 577.76622,583.59588 577.13454,583.59588 C 576.47389,583.59588 577.49958,584.4249 577.63825,584.54048 C 577.85847,584.72402 577.81355,585.64969 577.89012,585.90492 C 578.09619,586.59194 577.51233,586.83005 577.51233,587.37429 C 577.51233,587.40884 576.49713,587.95479 576.37896,588.00403 C 576.01767,588.15459 575.68417,588.58311 575.37153,588.84367 C 574.88983,589.24515 574.78797,589.43502 574.3641,589.78828 C 573.95043,590.13305 573.3651,590.10174 572.72702,590.2081 C 572.14288,590.30547 571.65079,590.41802 570.96402,590.41802 C 570.57863,590.41802 570.07154,589.77914 569.83065,589.57837 C 569.28645,589.12481 569.11837,589.82769 568.82322,588.84367 C 568.79516,588.75014 568.41464,588.00639 568.3195,587.68917 C 568.14933,587.12188 568.19615,586.75319 568.06763,586.32474 C 567.95552,585.95096 567.57726,585.73945 567.43799,585.27518 C 567.27704,584.73861 567.35577,584.19352 567.0602,583.70085 C 566.757,583.19543 566.1787,583.39146 566.1787,582.54632 C 566.1787,581.82685 566.52012,581.7673 566.80834,581.28685 C 567.00583,580.95767 567.2077,580.37531 567.31206,580.02739 C 567.41706,579.67732 567.86595,579.1041 568.06763,578.76791 C 568.11764,578.68458 567.9417,578.34045 567.9417,578.13819 L 564.79348,575.7242 C 565.34886,574.79844 565.48326,575.13206 566.43055,575.7242 C 566.94627,576.04657 567.36404,576.05448 567.9417,575.93411 C 568.41694,575.83509 568.38902,574.67402 568.38902,575.66562 C 568.38902,576.39737 568.22211,575.55504 568.89673,575.35076 C 570.06057,574.99834 569.94995,575.06252 568.94914,575.61923 C 568.72471,575.74407 570.00318,576.08947 569.70471,575.09446 C 569.54824,574.5728 568.6932,575.10811 568.94914,574.25481 C 569.04317,573.94133 570.86837,574.33985 570.96402,574.35977 C 571.51037,574.47361 571.91199,573.73004 572.47516,573.73004 C 573.02256,573.73004 573.70841,573.52012 574.3641,573.52012 C 574.84973,573.52012 575.74131,573.28565 576.12711,573.20527 C 576.90283,573.04363 577.24622,573.00426 577.76419,572.68047 C 578.11977,572.45821 577.54397,571.31657 577.51233,571.2111 C 577.34906,570.6668 579.25588,571.20786 579.27534,571.2111 C 580.08845,571.34664 580.18,570.50416 580.28277,570.16154 C 580.48676,569.48149 580.59439,569.29699 581.2902,569.00702 C 582.06073,568.68593 582.29764,568.19479 582.29764,567.53766 C 582.29764,566.55339 582.73307,566.24787 582.92729,565.43853 C 583.07461,564.82458 582.78312,564.65413 583.30506,564.0741 C 583.85592,563.46197 584.25003,563.23365 584.56437,562.70968 C 584.84775,562.23729 584.81623,561.84027 584.81623,561.24029 C 584.81623,560.6871 584.97197,560.6354 584.43843,560.19073" />
  </g>
  <g
     id="mp">
    <title
       id="title109">Northern Mariana Islands</title>
    <path
       class="territory mp"
       d="M 644.48008,558.69288 C 644.48008,558.69288 645.555,557.97261 645.555,557.97261 C 645.555,557.97261 646.45569,557.37474 646.45569,557.37474 C 646.45569,557.37474 644.48008,558.69288 644.48008,558.69288 z M 644.56012,564.25094 C 644.56012,564.25094 646.53729,566.22812 646.53729,566.22812 C 646.53729,566.22812 646.36156,564.35607 646.36156,564.35607 C 646.36156,564.35607 644.56012,564.25094 644.56012,564.25094 z M 649.17041,570.18093 C 649.17041,570.18093 650.48854,573.47467 650.48854,573.47467 C 650.48854,573.47467 650.48854,573.47467 650.48854,573.47467 C 650.48854,573.47467 651.80665,570.18093 651.80665,570.18093 C 651.80665,570.18093 649.17041,570.18093 649.17041,570.18093 z M 654.44133,576.76839 C 654.44133,576.76839 654.44133,580.06214 654.44133,580.06214 C 654.44133,580.06214 656.41694,580.72118 656.41694,580.72118 C 656.41694,580.72118 657.076,577.42746 657.076,577.42746 C 657.076,577.42746 654.44133,576.76839 654.44133,576.76839 z M 663.08759,585.20908 C 663.08759,585.20908 661.35833,588.29567 661.35833,588.29567 C 661.35833,588.29567 661.93422,590.14889 661.93422,590.14889 C 661.93422,590.14889 664.81683,591.38386 664.81683,591.38386 C 664.81683,591.38386 665.97017,589.53063 665.97017,589.53063 C 665.97017,589.53063 665.97017,586.44246 665.97017,586.44246 C 665.97017,586.44246 663.08759,585.20908 663.08759,585.20908 z " />
  </g>
  <g
     id="as">
    <title
       id="title113">American Samoa</title>
    <path
       class="territory as"
       d="M 609.49661,582.49995 C 609.72086,582.39786 610.04589,581.85516 610.19908,581.57627 C 610.45797,581.10491 609.94848,581.01159 610.58933,580.86574 C 610.90746,580.79334 611.26834,581.2707 611.36985,581.36311 C 611.61821,581.58919 611.77879,581.79243 611.91621,581.29205 C 611.97203,581.08882 612.62229,580.38366 612.85283,580.22627 C 613.15919,580.0171 613.4135,580.00008 613.7114,579.7289 C 613.96008,579.50253 614.18826,579.2948 614.41387,579.08942 C 614.69581,578.83276 614.84495,578.7309 615.03829,578.37889 C 615.2186,578.05057 615.47613,577.8382 615.6627,577.66836 C 616.07961,577.28884 614.64098,577.45521 614.02361,577.45521 C 613.8617,577.45521 614.30419,576.8176 614.33583,576.67363 C 614.43007,576.24466 614.54952,576.26974 614.96023,576.17627 C 615.54677,576.04278 615.58464,576.31101 615.58464,576.74469 C 615.58464,577.03379 616.05399,576.31462 616.13101,576.03416 C 616.23793,575.64487 616.496,575.47724 616.83347,575.32363 C 617.16516,575.17265 617.53274,575.0764 617.77009,574.96836 C 618.18466,574.77967 618.17484,574.80797 618.0823,574.471 C 618.02532,574.2635 618.1405,573.8303 618.0823,573.61836 C 617.9583,573.16682 618.5857,573.54015 618.31646,573.04994 C 618.19964,572.83725 617.51566,572.68545 617.37983,572.62362 C 616.98974,572.44606 616.63909,572.49963 616.28712,572.33942 C 615.8661,572.14778 615.94372,572.01254 616.20906,571.771 C 616.35797,571.63544 617.17581,571.81337 617.30178,571.84204 C 617.67269,571.92647 618.06699,571.9131 618.47257,571.9131 C 618.99621,571.9131 619.29185,571.93075 619.72138,572.12627 C 620.04422,572.2732 619.95554,572.55849 619.95554,572.97889 C 619.95554,573.44231 619.8184,573.65821 620.26775,573.76047 C 620.81427,573.88485 620.92704,573.78996 621.28242,573.54731 C 621.42765,573.44816 622.42503,573.3535 622.53125,573.33416 C 622.95206,573.25754 623.19075,573.08905 623.38983,572.90784 C 623.67394,572.6492 624.05132,572.44776 624.24839,572.26836 C 624.5404,572.00255 624.81471,571.92632 625.18501,571.84204 C 625.66081,571.73376 625.85678,572.02726 626.04358,572.19731 C 626.23241,572.36923 626.12164,572.94594 626.12164,573.19204 C 626.12164,573.41274 627.55047,572.86143 627.60461,572.83678 C 628.0225,572.64659 628.28161,572.71786 628.54124,572.48153 C 628.90565,572.14979 628.66152,571.92271 629.2437,572.05521 C 629.68719,572.15614 629.95716,571.92836 630.33643,571.84204 C 630.74681,571.74866 630.64863,571.5006 630.64863,571.06047 C 630.64863,570.70521 630.64863,570.34994 630.64863,569.99469 C 630.64863,569.49269 630.3355,569.58592 629.94617,569.49731 C 629.62498,569.42422 629.18083,569.62559 629.00955,569.78151 C 628.67477,570.08627 628.58572,569.97483 628.46318,570.421 C 628.34856,570.83838 628.29953,570.88627 627.91682,571.06047 C 627.73284,571.1442 627.39101,570.70521 626.9802,570.70521 C 626.53749,570.70521 626.36713,570.46168 626.12164,570.34994 C 625.77735,570.19324 625.50825,570.13679 625.02892,570.13679 C 624.85506,570.13679 624.59938,570.55428 624.24839,570.63415 C 623.93288,570.70596 623.33595,570.63415 623.23372,570.63415 C 622.91235,570.63415 623.6064,569.86059 623.62398,569.85257 C 624.05585,569.656 624.58854,569.89117 623.70202,569.56836 C 623.35592,569.44233 622.87588,569.63942 622.53125,569.63942 C 621.96267,569.63942 621.90684,569.71636 621.90684,570.20784 C 621.90684,570.6921 621.61653,570.63415 621.12633,570.63415 C 620.82291,570.63415 620.95236,569.99062 620.65802,569.92362 C 620.17283,569.81321 620.21704,570.23633 620.03358,569.56836 C 619.96165,569.30639 619.38479,569.59059 619.17504,569.78151 C 618.94479,569.99111 618.43303,569.7017 619.01893,569.56836 C 619.5204,569.45424 618.77115,568.99994 618.47257,568.99994 C 617.95158,568.99994 618.03264,569.32073 617.77009,569.63942 C 617.50928,569.95598 617.12419,569.71765 616.98958,570.20784 C 616.92137,570.45617 616.38654,570.51785 616.13101,570.63415 C 615.7423,570.81109 615.44798,570.98057 615.11634,571.13153 C 614.63131,571.35229 614.03463,571.27362 613.47726,571.27362 C 613.18636,571.27362 613.63335,571.7904 613.63335,572.05521 C 613.63335,572.41047 613.63335,572.76574 613.63335,573.121 C 613.63335,573.69916 613.55028,573.56621 613.00895,573.68942 C 612.716,573.7561 612.49384,573.40521 612.07231,573.40521 C 611.55832,573.40521 611.4479,573.62858 611.4479,574.04469 C 611.4479,574.49986 611.01756,574.24056 610.6674,574.39994 C 610.23736,574.59569 609.88687,574.68631 609.88687,574.18678 C 609.88687,573.81024 609.45294,573.7683 609.10635,573.68942 C 608.5998,573.57413 608.59034,574.03087 608.24779,574.18678 C 607.86211,574.36233 607.44786,574.3022 607.07701,574.471 C 606.97558,574.51717 606.76229,573.9553 606.53064,573.90257 C 606.12966,573.81132 605.57949,573.95919 605.20377,574.04469 C 604.75154,574.1476 604.98038,574.471 604.42325,574.471 C 603.99889,574.471 603.63614,574.58058 603.40858,574.68416 C 603.19696,574.78048 603.75909,575.11047 602.86222,575.11047 C 602.28935,575.11047 602.2078,575.16508 602.00364,575.53678 C 601.77217,575.9582 601.95777,576.09788 601.30118,576.24731 C 601.10358,576.29228 600.72682,576.7045 600.67677,576.88678 C 600.59386,577.18868 599.63196,577.14638 600.36456,577.31311 C 600.75835,577.40272 601.09684,577.42648 601.53534,577.52627 C 601.91313,577.61224 602.37911,577.76822 602.62806,577.88153 C 602.88567,577.99878 603.56992,577.84481 603.72078,577.81047 C 604.10737,577.7225 604.0818,577.58401 604.57935,577.81047 C 604.88159,577.94804 604.83541,578.31781 605.12571,578.44995 C 605.40188,578.57565 606.23155,578.52101 606.53064,578.52101 C 606.60294,578.52101 606.66329,579.43028 606.68675,579.51574 C 606.74412,579.72467 606.84235,580.15334 606.92091,580.43943 C 606.94571,580.52976 607.67033,580.83744 607.77948,580.93678 C 607.996,581.1339 608.28496,581.22946 608.55999,581.29205 C 609.0077,581.39394 609.18655,581.36506 609.41856,581.57627 C 609.65843,581.79462 609.37062,582.21323 609.49661,582.49995 z" />
  </g>
  <path
     class="border"
     d="M 211,493 V 548 L 247,593 M 0,425 H 144 L 211,493 H 297 L 350,547 V 593"
     id="path116" />
  <path
     class="territoryborder"
     d="M 559.77592,593 L 559.77592,515.6691 L 682.01719,515.6691 L 682.01719,593 M 632.77323,515.6691 L 632.77323,593 M 559.77592,557.52646 L 682.01719,557.52646M 597.89432,556.61302 L 597.89432,593.73613"
     id="path118" />
</svg>
